<?xml version="1.0" encoding="UTF-8"?>
<svg id="Ebene_2" data-name="Ebene 2" xmlns="http://www.w3.org/2000/svg" xmlns:xlink="http://www.w3.org/1999/xlink" viewBox="0 0 1000 1000">
  <defs>
    <style>
      .cls-1 {
        fill: url(#Unbenannter_Verlauf_3);
      }

      .cls-2 {
        fill: #1d1b1b;
      }

      .cls-3 {
        fill: #fff;
      }

      .cls-4 {
        fill: #3c3c3b;
      }

      .cls-5 {
        fill: url(#Unbenannter_Verlauf_141);
      }
    </style>
    <linearGradient id="Unbenannter_Verlauf_3" data-name="Unbenannter Verlauf 3" x1="202.66" y1="500.01" x2="797.33" y2="500.01" gradientUnits="userSpaceOnUse">
      <stop offset="0" stop-color="#e0b53a"/>
      <stop offset=".5" stop-color="#d4af37"/>
      <stop offset="1" stop-color="#a97c0a"/>
    </linearGradient>
    <linearGradient id="Unbenannter_Verlauf_141" data-name="Unbenannter Verlauf 141" x1="202.64" y1="505.59" x2="797.35" y2="505.59" gradientUnits="userSpaceOnUse">
      <stop offset="0" stop-color="#453b0b"/>
      <stop offset=".51" stop-color="#655617"/>
      <stop offset="1" stop-color="#513d07"/>
    </linearGradient>
  </defs>
  <g id="logo_2.0">
    <g id="rahmen_hell_unraid">
      <path class="cls-2" d="M500,20c64.81,0,127.67,12.69,186.83,37.71,57.16,24.17,108.49,58.79,152.58,102.88,44.09,44.09,78.7,95.42,102.88,152.58,25.02,59.16,37.71,122.02,37.71,186.83s-12.69,127.67-37.71,186.83c-24.17,57.16-58.79,108.49-102.88,152.58-44.09,44.09-95.42,78.7-152.58,102.88-59.16,25.02-122.02,37.71-186.83,37.71s-127.67-12.69-186.83-37.71c-57.16-24.17-108.49-58.79-152.58-102.88s-78.7-95.42-102.88-152.58c-25.02-59.16-37.71-122.02-37.71-186.83s12.69-127.67,37.71-186.83c24.17-57.16,58.79-108.49,102.88-152.58,44.09-44.09,95.42-78.7,152.58-102.88,59.16-25.02,122.02-37.71,186.83-37.71M500,0C223.86,0,0,223.86,0,500s223.86,500,500,500,500-223.86,500-500S776.14,0,500,0h0Z"/>
      <g id="rahmen_hell">
        <path class="cls-3" d="M500,110c52.69,0,103.75,10.3,151.78,30.61,46.43,19.64,88.15,47.77,123.99,83.62s63.98,77.56,83.62,123.99c20.31,48.02,30.61,99.09,30.61,151.78s-10.3,103.75-30.61,151.78c-19.64,46.43-47.77,88.15-83.62,123.99-35.85,35.85-77.56,63.98-123.99,83.62-48.02,20.31-99.09,30.61-151.78,30.61s-103.75-10.3-151.78-30.61c-46.43-19.64-88.15-47.77-123.99-83.62-35.85-35.85-63.98-77.56-83.62-123.99-20.31-48.02-30.61-99.09-30.61-151.78s10.3-103.75,30.61-151.78c19.64-46.43,47.77-88.15,83.62-123.99,35.85-35.85,77.56-63.98,123.99-83.62,48.02-20.31,99.09-30.61,151.78-30.61M500,20C234.9,20,20,234.9,20,500s214.9,480,480,480,480-214.9,480-480S765.1,20,500,20h0Z"/>
      </g>
      <g id="rahnem_hell">
        <path class="cls-2" d="M500,122.5c51.01,0,100.44,9.97,146.91,29.62,44.95,19.02,85.33,46.25,120.02,80.95,34.7,34.69,61.93,75.07,80.95,120.01,19.66,46.47,29.62,95.9,29.62,146.91s-9.97,100.44-29.62,146.91c-19.02,44.95-46.25,85.33-80.95,120.02-34.69,34.7-75.07,61.93-120.01,80.95-46.47,19.66-95.9,29.62-146.91,29.62s-100.44-9.97-146.91-29.62c-44.95-19.02-85.33-46.25-120.02-80.95-34.7-34.69-61.93-75.07-80.95-120.01-19.66-46.47-29.62-95.9-29.62-146.91s9.97-100.44,29.62-146.91c19.02-44.95,46.25-85.33,80.95-120.02,34.69-34.7,75.07-61.93,120.01-80.95,46.47-19.66,95.9-29.62,146.91-29.62M500,102.5c-53.7,0-105.75,10.5-154.7,31.2-47.32,20.02-89.84,48.69-126.37,85.23-36.53,36.52-65.21,79.05-85.23,126.37-20.71,48.95-31.2,101.01-31.2,154.7s10.5,105.75,31.2,154.7c20.02,47.32,48.69,89.84,85.23,126.37,36.52,36.53,79.05,65.21,126.37,85.23,48.95,20.71,101.01,31.2,154.7,31.2s105.75-10.5,154.7-31.2c47.32-20.02,89.84-48.69,126.37-85.23,36.53-36.52,65.21-79.05,85.23-126.37,20.71-48.95,31.2-101.01,31.2-154.7s-10.5-105.75-31.2-154.7c-20.02-47.32-48.69-89.84-85.23-126.37-36.52-36.53-79.05-65.21-126.37-85.23-48.95-20.71-101.01-31.2-154.7-31.2h0Z"/>
      </g>
      <path class="cls-4" d="M219.23,218.86c36.56-36.49,79.13-65.13,126.52-85.13,49.04-20.7,101.15-31.19,154.91-31.19s105.87,10.49,154.91,31.19c2.13.9,4.25,1.82,6.36,2.76-7.39-3.72-14.92-7.19-22.57-10.45-49.42-21.04-101.92-31.71-156.08-31.71s-106.66,10.66-156.08,31.71c-47.78,20.34-90.7,49.48-127.58,86.61-36.91,37.15-65.87,80.41-86.11,128.57-20.95,49.87-31.58,102.88-31.58,157.54s10.63,107.67,31.58,157.54c20.24,48.16,49.2,91.42,86.11,128.57,36.88,37.13,79.8,66.27,127.58,86.61,49.42,21.04,101.92,31.71,156.08,31.71,50.36,0,99.29-9.22,145.63-27.43-41.12,13.98-84.13,21.04-128.25,21.04-53.75,0-105.87-10.49-154.91-31.19-47.38-20-89.96-48.64-126.52-85.13-36.57-36.48-65.27-78.96-85.32-126.24-20.74-48.93-31.25-100.93-31.25-154.57s10.51-105.63,31.25-154.57c20.05-47.28,48.75-89.76,85.32-126.24ZM219.23,218.86c36.56-36.49,79.13-65.13,126.52-85.13,49.04-20.7,101.15-31.19,154.91-31.19s105.87,10.49,154.91,31.19c2.13.9,4.25,1.82,6.36,2.76-7.39-3.72-14.92-7.19-22.57-10.45-49.42-21.04-101.92-31.71-156.08-31.71s-106.66,10.66-156.08,31.71c-47.78,20.34-90.7,49.48-127.58,86.61-36.91,37.15-65.87,80.41-86.11,128.57-20.95,49.87-31.58,102.88-31.58,157.54s10.63,107.67,31.58,157.54c20.24,48.16,49.2,91.42,86.11,128.57,36.88,37.13,79.8,66.27,127.58,86.61,49.42,21.04,101.92,31.71,156.08,31.71,50.36,0,99.29-9.22,145.63-27.43-41.12,13.98-84.13,21.04-128.25,21.04-53.75,0-105.87-10.49-154.91-31.19-47.38-20-89.96-48.64-126.52-85.13-36.57-36.48-65.27-78.96-85.32-126.24-20.74-48.93-31.25-100.93-31.25-154.57s10.51-105.63,31.25-154.57c20.05-47.28,48.75-89.76,85.32-126.24Z"/>
      <path class="cls-4" d="M499.98,19.98c-1.11,0-2.23,0-3.34.02,256.72,11.59,461.26,221.62,461.26,479.02s-216.55,479.53-483.66,479.53c-5.1,0-10.18-.08-15.24-.25,13.5,1.15,27.17,1.73,40.98,1.73,265.11,0,480.02-214.91,480.02-480.02S765.09,19.98,499.98,19.98Z"/>
    </g>
    <path id="anker" class="cls-1" d="M796.77,583.05l-40.97-69.8c-1.58-2.84-3.04-2.43-4.41-.04l-41.89,69.91c-1.29,2.54-1.04,4.21,2.59,4l27.06-.11s-.12,3.97-.25,6.75c-1.47,31.41-20.1,74.6-41.11,97.87-27.55,30.54-82.64,55.25-122.64,36.97-29.58-13.53-31.05-41.7-34.22-70.17-8.45-76.15-14.18-274.84-14.18-274.84,3.63.08,7.57.44,10.13-2.64,2.19-2.64.23-3.95,4.4-4.67,18.56-3.15,39.57-3.32,58.39-3.45,14.73-.1,30.5-.59,45.29,1.17,3.88.47,5.36,3.16,8.45,5.18,21.54,14,47.42-7.08,38.86-30.92-6.48-18.04-31.55-22.41-43.81-7.76l-1.17.53c-36.07,2.9-72.34,2.07-108.28-2.22-1.57-6.3-6.43-6.76-12.46-6.76l1.32-51.71c4.25.52,9.74-1.47,10.66-6.08.32-1.6.21-4.89.21-4.89,0,0,2.24-1.68,3.05-2.63,3.5-4.15,4.36-10.05,1.86-14.94-1-1.97-1.24-2.7-2.54-5.05,14.54-11.92,23.71-30.51,23.71-50.79,0-33.96-26.04-61.84-59.25-64.76-.04-.02-.08-.02-.13-.02-1.85-.16-3.74-.24-5.65-.24-2.2,0-4.37.11-6.52.33-32.86,3.26-58.51,30.99-58.51,64.69,0,20.29,9.28,38.41,23.84,50.34-1.32,2.98-1.67,3.55-2.67,5.5-2.49,4.89-1.63,10.79,1.87,14.94.79.95,3.04,2.63,3.04,2.63,0,0-.09,3.29.22,4.89.91,4.62,6.4,6.6,10.65,6.08l.88,51.71c-7.1-.34-10.49,1.45-12.02,6.75-7.01.24-13.94,1.64-20.91,2.24-29.08,2.49-58.3,2.05-87.35-.01-11-11.7-29.31-13.14-40.29-.56-17.66,20.2,3.63,51.2,29.37,41.28,4.94-1.91,8.85-7.2,13.25-7.74,14.6-1.77,30.19-1.26,44.72-1.17,19.07.12,40.17.26,58.96,3.45,4.18.71,2.22,2.03,4.41,4.67,2.55,3.08,6.5,2.72,10.12,2.64,0,0-1.14,49.15-1.72,71.74-1.75,67.47-4.94,135.79-12.46,203.1-3.57,31.9-6.24,62.9-42.42,73.3-41.56,11.96-91.69-12.68-118.1-44.39l-6.48-8.27c-16.35-24.16-29.35-58.24-30.57-84.26-.13-2.77-.24-6.75-.24-6.75l27.05.11c3.63.2,3.88-1.48,2.59-4l-41.89-69.91c-1.38-2.38-2.83-2.8-4.4.04l-40.98,69.8c-1.19,2.35-.57,3.9,2.83,4.2l26.83-.23-.02,2.64v13.29c6.51,119.97,91.12,199.64,200.98,233,17.85,5.42,39.37,8.62,54.03,20.86,3.8,3.18,6.68,7.5,10.52,10.48,1.21.95,1.61,1.04,2.82,0,3.85-2.96,6.7-7.32,10.52-10.49,15.6-12.93,39.78-16.32,58.82-22.3,103.59-32.53,186.64-110.03,195.59-223.06.6-7.6,1-22.84,1-22.84l-.02-2.64,26.83.23c3.4-.3,4.02-1.83,2.83-4.2ZM499.79,234.64c-21.37,0-38.68-17.31-38.68-38.68s17.31-38.67,38.68-38.67,38.68,17.31,38.68,38.67-17.32,38.68-38.68,38.68Z"/>
    <path id="anker_schattierung" class="cls-5" d="M526.96,392.03l7.58,180.7s3.51,58.22,5.39,76.02,2.62,52.88,18.75,68.19c0,0,10.7,12.5,31.82,16.51-53.36,8.28-79.27-13.87-79.85-42.94v-298.49h16.31ZM460.85,269.37l.03,4.07h77.85l.02-4.07h-77.9ZM471.72,280.34l.09,7.36h55.92l.14-7.36h-56.16ZM523.47,850.71c16.4-8.04,54.29-15.25,81.33-27.91,27.03-12.65,75.65-33.77,118.44-92.01-6.02,5.5-12.44-4.33-22.21,6.24-9.77,10.57-33.85,33.3-52.94,41.67-74.88,32.82-147.05,32.18-148.09,58.22v32.14c2.14.75,7.07-10.32,23.47-18.36ZM739.15,587.01s2.02-10.24-.71-9.04c-4.22,1.53-18.93-.02-26.23.62l-2.41,3.97c-2.86,4.82.92,4.56,2.6,4.56,3.04-.09,26.76-.11,26.76-.11ZM754.31,511.48c-2.58,23.28,30.79,66.56,24.94,66.17s-13.09-.74-19.93,1.23,4.69,12.89-11.3,72.98c-12,45.07-21.24,62.63-78.21,116.35-.4,2.64,9.08,10.53,26.27-5.68,72.85-71,70.6-159.17,70.6-159.17l.7-16.21,26.1.11c4.58-.13,4.86-2.17,2.09-6.43l-38.92-66.14c-.56-.99-1.87-2.79-2.33-3.21ZM499.84,869.08v-32.14c-1.4-34.96-130.98-21.84-223.24-106.14,42.79,58.24,91.41,79.35,118.44,92.01,27.03,12.65,64.92,19.87,81.33,27.91s21.33,19.12,23.47,18.36ZM232.88,588.07s1.98-10.22-.75-9.01c-4.22,1.53-19.02-.01-26.32.63l-2.33,3.96c-2.67,4.24,1.73,4.65,2.63,4.65,3.04-.09,26.77-.23,26.77-.23ZM247.62,512.93c-2.58,23.28,30.96,66.03,25.12,65.64s-13.09-.74-19.93,1.23c-6.84,1.97.22,61.91,13.29,84.64,13.07,22.72,29.03,49.7,82.07,60.05-77.65-34.3-86.43-122.29-86.43-122.29l-.88-14.13,26.1.11c5.72.49,4.86-2.17,2.09-6.43l-39.72-66.29c-.56-.99-1.24-2.12-1.7-2.53ZM472.6,332.05h53.95l.41-7.93h-54.44l.08,7.93ZM472.85,392.03h54.11l-.21-8.43h-53.89v8.43ZM689.05,371.05c-6.07,9.85-18.35,15.91-31.85,10.7-4.94-1.91-8.85-7.2-13.25-7.74-14.6-1.77-30.19-1.26-44.72-1.17-19.07.12-40.17.26-58.96,3.45,14.16-14.44,65.69-11.83,88.96-11.49,7.84.12,18.7-4.1,18.7-4.1,10.66,20.01,35.53,13.89,41.12,10.35ZM350.67,360.7s10.85,4.22,18.7,4.1c23.26-.34,74.8-2.95,88.96,11.49-18.79-3.19-39.89-3.33-58.96-3.45-14.53-.09-30.12-.6-44.72,1.17-4.39.54-8.3,5.84-13.25,7.74-13.5,5.21-25.78-.85-31.85-10.7,5.59,3.54,30.46,9.66,41.12-10.35ZM541.12,246.99h-.3l-17.72-.15-64.5-.54-2.88,5.93h88.14l-2.75-5.24ZM536.23,142.07c12.14,12.09,19.66,28.82,19.66,47.3,0,24.46-13.15,45.85-32.77,57.46l17.72.15c14.76-11.98,24.19-30.26,24.19-50.76,0-22.54-11.42-42.41-28.79-54.16ZM529.64,220.57c5.52-6.69,8.84-15.26,8.84-24.61,0-21.36-17.32-38.67-38.69-38.67s-38.68,17.31-38.68,38.67,17.32,38.68,38.68,38.68c6.57,0,12.76-1.64,18.18-4.53-6.32,3.56-13.61,5.59-21.38,5.59-24.13,0-43.68-19.55-43.68-43.68s19.55-43.66,43.68-43.66,43.68,19.55,43.68,43.66c0,10.92-4,20.9-10.63,28.55Z"/>
  </g>
</svg>
