<?xml version="1.0" encoding="UTF-8"?>
<svg id="Ebene_2" data-name="Ebene 2" xmlns="http://www.w3.org/2000/svg" viewBox="0 0 994 994">
  <defs>
    <style>
      .cls-1 {
        fill: #fff;
      }

      .cls-2 {
        fill: #e6edf3;
      }

      .cls-3 {
        fill: #3a3e42;
      }
    </style>
  </defs>
  <g id="logo_vII">
    <path class="cls-1" d="M497,20c263.44,0,477,213.56,477,477s-213.56,477-477,477S20,760.44,20,497,233.56,20,497,20M497,0c-67.09,0-132.18,13.14-193.46,39.07-59.18,25.03-112.33,60.87-157.97,106.5-45.64,45.64-81.47,98.79-106.5,157.97C13.14,364.82,0,429.91,0,497s13.14,132.18,39.06,193.46c25.03,59.18,60.87,112.33,106.5,157.97,45.64,45.64,98.79,81.47,157.97,106.5,61.29,25.92,126.38,39.06,193.46,39.06s132.18-13.14,193.46-39.06c59.18-25.03,112.33-60.87,157.97-106.5,45.64-45.64,81.47-98.79,106.5-157.97,25.92-61.29,39.07-126.38,39.07-193.46s-13.14-132.18-39.07-193.46c-25.03-59.18-60.87-112.33-106.5-157.97-45.64-45.64-98.79-81.47-157.97-106.5C629.18,13.14,564.09,0,497,0h0Z"/>
    <g>
      <path class="cls-1" d="M497,939c-59.69,0-117.57-11.68-172.04-34.72-52.63-22.26-99.9-54.14-140.51-94.74-40.6-40.6-72.48-87.88-94.74-140.51-23.04-54.47-34.72-112.35-34.72-172.04s11.68-117.57,34.72-172.04c22.26-52.63,54.13-99.9,94.74-140.51,40.6-40.6,87.88-72.48,140.51-94.74,54.47-23.04,112.35-34.72,172.04-34.72s117.57,11.68,172.04,34.72c52.63,22.26,99.9,54.13,140.51,94.74,40.6,40.6,72.48,87.88,94.74,140.51,23.04,54.47,34.72,112.35,34.72,172.04s-11.68,117.57-34.72,172.04c-22.26,52.63-54.14,99.9-94.74,140.51s-87.88,72.48-140.51,94.74c-54.47,23.04-112.35,34.72-172.04,34.72Z"/>
      <path class="cls-2" d="M497,90c54.98,0,108.27,10.75,158.4,31.96,48.46,20.5,91.99,49.85,129.39,87.25,37.4,37.4,66.76,80.93,87.25,129.39,21.2,50.13,31.96,103.43,31.96,158.4s-10.75,108.27-31.96,158.4c-20.5,48.46-49.85,91.99-87.25,129.39-37.4,37.4-80.93,66.76-129.39,87.25-50.13,21.2-103.43,31.96-158.4,31.96s-108.27-10.75-158.4-31.96c-48.46-20.5-91.99-49.85-129.39-87.25-37.4-37.4-66.76-80.93-87.25-129.39-21.2-50.13-31.96-103.43-31.96-158.4s10.75-108.27,31.96-158.4c20.5-48.46,49.85-91.99,87.25-129.39,37.4-37.4,80.93-66.76,129.39-87.25,50.13-21.2,103.43-31.96,158.4-31.96M497,20C233.56,20,20,233.56,20,497s213.56,477,477,477,477-213.56,477-477S760.44,20,497,20h0Z"/>
    </g>
    <path class="cls-3" d="M207.84,208.17c37.52-37.53,81.2-66.98,129.83-87.55,50.32-21.28,103.8-32.07,158.96-32.07s108.64,10.79,158.96,32.07c2.19.93,4.37,1.87,6.53,2.84-7.59-3.82-15.31-7.4-23.16-10.75-50.71-21.64-104.59-32.61-160.16-32.61s-109.45,10.97-160.16,32.61c-49.03,20.92-93.07,50.89-130.91,89.07-37.87,38.2-67.6,82.69-88.37,132.22-21.5,51.29-32.41,105.8-32.41,162.02s10.91,110.73,32.41,162.02c20.77,49.52,50.49,94.02,88.37,132.22,37.85,38.18,81.89,68.15,130.91,89.07,50.71,21.64,104.59,32.61,160.16,32.61,51.67,0,101.88-9.48,149.44-28.21-42.19,14.37-86.33,21.64-131.6,21.64-55.16,0-108.64-10.79-158.96-32.07-48.62-20.57-92.31-50.02-129.83-87.55-37.53-37.52-66.98-81.2-87.55-129.83-21.28-50.32-32.07-103.8-32.07-158.96s10.79-108.64,32.07-158.96c20.57-48.62,50.02-92.31,87.55-129.83ZM207.84,208.17c37.52-37.53,81.2-66.98,129.83-87.55,50.32-21.28,103.8-32.07,158.96-32.07s108.64,10.79,158.96,32.07c2.19.93,4.37,1.87,6.53,2.84-7.59-3.82-15.31-7.4-23.16-10.75-50.71-21.64-104.59-32.61-160.16-32.61s-109.45,10.97-160.16,32.61c-49.03,20.92-93.07,50.89-130.91,89.07-37.87,38.2-67.6,82.69-88.37,132.22-21.5,51.29-32.41,105.8-32.41,162.02s10.91,110.73,32.41,162.02c20.77,49.52,50.49,94.02,88.37,132.22,37.85,38.18,81.89,68.15,130.91,89.07,50.71,21.64,104.59,32.61,160.16,32.61,51.67,0,101.88-9.48,149.44-28.21-42.19,14.37-86.33,21.64-131.6,21.64-55.16,0-108.64-10.79-158.96-32.07-48.62-20.57-92.31-50.02-129.83-87.55-37.53-37.52-66.98-81.2-87.55-129.83-21.28-50.32-32.07-103.8-32.07-158.96s10.79-108.64,32.07-158.96c20.57-48.62,50.02-92.31,87.55-129.83Z"/>
    <path class="cls-3" d="M497,20c-1.1,0-2.21,0-3.31.02,255.1,11.52,458.35,220.23,458.35,476s-215.18,476.51-480.61,476.51c-5.07,0-10.12-.08-15.15-.25,13.42,1.14,27,1.72,40.72,1.72,263.44,0,477-213.56,477-477S760.44,20,497,20Z"/>
    <path class="cls-2" d="M793.77,580.05l-40.97-69.8c-1.58-2.84-3.04-2.43-4.41-.04l-41.89,69.91c-1.29,2.54-1.04,4.21,2.59,4l27.06-.11s-.12,3.97-.25,6.75c-1.47,31.41-20.1,74.6-41.11,97.87-27.55,30.54-82.64,55.25-122.64,36.97-29.58-13.53-31.05-41.7-34.22-70.17-8.45-76.15-14.18-274.84-14.18-274.84,3.63.08,7.57.44,10.13-2.64,2.19-2.64.23-3.95,4.4-4.67,18.56-3.15,39.57-3.32,58.39-3.45,14.73-.1,30.5-.59,45.29,1.17,3.88.47,5.36,3.16,8.45,5.18,21.54,14,47.42-7.08,38.86-30.92-6.48-18.04-31.55-22.41-43.81-7.76l-1.17.53c-36.07,2.9-72.34,2.07-108.28-2.22-1.57-6.3-6.43-6.76-12.46-6.76l1.32-51.71c4.25.52,9.74-1.47,10.66-6.08.32-1.6.21-4.89.21-4.89,0,0,2.24-1.68,3.05-2.63,3.5-4.15,4.36-10.05,1.86-14.94-1-1.97-1.24-2.7-2.54-5.05,14.54-11.92,23.71-30.51,23.71-50.79,0-33.96-26.04-61.84-59.25-64.76-.04-.02-.08-.02-.13-.02-1.85-.16-3.74-.24-5.65-.24-2.2,0-4.37.11-6.52.33-32.86,3.26-58.51,30.99-58.51,64.69,0,20.29,9.28,38.41,23.84,50.34-1.32,2.98-1.67,3.55-2.67,5.5-2.49,4.89-1.63,10.79,1.87,14.94.79.95,3.04,2.63,3.04,2.63,0,0-.09,3.29.22,4.89.91,4.62,6.4,6.6,10.65,6.08l.88,51.71c-7.1-.34-10.49,1.45-12.02,6.75-7.01.24-13.94,1.64-20.91,2.24-29.08,2.49-58.3,2.05-87.35-.01-11-11.7-29.31-13.14-40.29-.56-17.66,20.2,3.63,51.2,29.37,41.28,4.94-1.91,8.85-7.2,13.25-7.74,14.6-1.77,30.19-1.26,44.72-1.17,19.07.12,40.17.26,58.96,3.45,4.18.71,2.22,2.03,4.41,4.67,2.55,3.08,6.5,2.72,10.12,2.64,0,0-1.14,49.15-1.72,71.74-1.75,67.47-4.94,135.79-12.46,203.1-3.57,31.9-6.24,62.9-42.42,73.3-41.56,11.96-91.69-12.68-118.1-44.39l-6.48-8.27c-16.35-24.16-29.35-58.24-30.57-84.26-.13-2.77-.24-6.75-.24-6.75l27.05.11c3.63.2,3.88-1.48,2.59-4l-41.89-69.91c-1.38-2.38-2.83-2.8-4.4.04l-40.98,69.8c-1.19,2.35-.57,3.9,2.83,4.2l26.83-.23-.02,2.64v13.29c6.51,119.97,91.12,199.64,200.98,233,17.85,5.42,39.37,8.62,54.03,20.86,3.8,3.18,6.68,7.5,10.52,10.48,1.21.95,1.61,1.04,2.82,0,3.85-2.96,6.7-7.32,10.52-10.49,15.6-12.93,39.78-16.32,58.82-22.3,103.59-32.53,186.64-110.03,195.59-223.06.6-7.6,1-22.84,1-22.84l-.02-2.64,26.83.23c3.4-.3,4.02-1.83,2.83-4.2ZM496.79,231.64c-21.37,0-38.68-17.31-38.68-38.68s17.31-38.67,38.68-38.67,38.68,17.31,38.68,38.67-17.32,38.68-38.68,38.68Z"/>
    <path class="cls-3" d="M523.96,389.03l7.58,180.7s3.51,58.22,5.39,76.02,2.62,52.88,18.75,68.19c0,0,10.7,12.5,31.82,16.51-53.36,8.28-79.27-13.87-79.85-42.94v-298.49h16.31Z"/>
    <polygon class="cls-3" points="457.85 266.37 457.88 270.43 535.73 270.43 535.75 266.37 457.85 266.37"/>
    <polygon class="cls-3" points="468.72 277.34 468.82 284.7 524.74 284.7 524.88 277.34 468.72 277.34"/>
    <path class="cls-3" d="M497,866.08v-32.14c1.04-26.04,73.21-25.4,148.09-58.22,19.09-8.37,43.17-31.1,52.94-41.67,9.77-10.57,16.19-.74,22.21-6.24-42.79,58.24-91.41,79.35-118.44,92.01-27.03,12.65-64.92,19.87-81.33,27.91-16.4,8.04-21.33,19.12-23.47,18.36Z"/>
    <path class="cls-3" d="M736.15,584.01s2.02-10.24-.71-9.04c-4.22,1.53-18.93-.02-26.23.62l-2.41,3.97c-2.86,4.82.92,4.56,2.6,4.56,3.04-.09,26.76-.11,26.76-.11Z"/>
    <path class="cls-3" d="M751.31,508.48c-2.58,23.28,30.79,66.56,24.94,66.17-5.84-.39-13.09-.74-19.93,1.23-6.84,1.97,4.69,12.89-11.3,72.98-12,45.07-21.24,62.63-78.21,116.35-.4,2.64,9.08,10.53,26.27-5.68,72.85-71,70.6-159.17,70.6-159.17l.7-16.21,26.1.11c4.58-.13,4.86-2.17,2.09-6.43l-38.92-66.14c-.56-.99-1.87-2.79-2.33-3.21Z"/>
    <path class="cls-3" d="M496.84,866.08v-32.14c-1.4-34.96-130.98-21.84-223.24-106.14,42.79,58.24,91.41,79.35,118.44,92.01,27.03,12.65,64.92,19.87,81.33,27.91,16.4,8.04,21.33,19.12,23.47,18.36Z"/>
    <path class="cls-3" d="M229.88,585.07s1.98-10.22-.75-9.01c-4.22,1.53-19.02-.01-26.32.63l-2.33,3.96c-2.67,4.24,1.73,4.65,2.63,4.65,3.04-.09,26.77-.23,26.77-.23Z"/>
    <path class="cls-3" d="M244.62,509.93c-2.58,23.28,30.96,66.03,25.12,65.64s-13.09-.74-19.93,1.23c-6.84,1.97.22,61.91,13.29,84.64,13.07,22.72,29.03,49.7,82.07,60.05-77.65-34.3-86.43-122.29-86.43-122.29l-.88-14.13,26.1.11c5.72.49,4.86-2.17,2.09-6.43l-39.72-66.29c-.56-.99-1.24-2.12-1.7-2.53Z"/>
    <polygon class="cls-3" points="469.6 329.05 523.55 329.05 523.96 321.12 469.52 321.12 469.6 329.05"/>
    <polygon class="cls-3" points="469.85 380.59 523.75 380.59 523.96 389.03 469.85 389.03 469.85 380.59"/>
    <path class="cls-3" d="M644.93,357.7s-10.85,4.22-18.7,4.1c-23.26-.34-74.8-2.95-88.96,11.49,18.79-3.19,39.89-3.33,58.96-3.45,14.53-.09,30.12-.6,44.72,1.17,4.39.54,8.3,5.84,13.25,7.74,13.5,5.21,25.78-.85,31.85-10.7-5.59,3.54-30.46,9.66-41.12-10.35Z"/>
    <path class="cls-3" d="M306.54,368.05c6.07,9.85,18.35,15.91,31.85,10.7,4.94-1.91,8.85-7.2,13.25-7.74,14.6-1.77,30.19-1.26,44.72-1.17,19.07.12,40.17.26,58.96,3.45-14.16-14.44-65.69-11.83-88.96-11.49-7.84.12-18.7-4.1-18.7-4.1-10.66,20.01-35.53,13.89-41.12,10.35Z"/>
    <polygon class="cls-3" points="540.87 249.23 452.73 249.23 455.61 243.3 520.11 243.83 537.82 243.99 538.12 243.99 540.87 249.23"/>
    <path class="cls-3" d="M562.01,193.23c0,20.5-9.43,38.78-24.19,50.76l-17.72-.15c19.62-11.62,32.77-33,32.77-57.46,0-18.48-7.51-35.21-19.66-47.3,17.37,11.74,28.79,31.62,28.79,54.16Z"/>
    <path class="cls-3" d="M537.27,189.02c0-24.11-19.56-43.66-43.68-43.66s-43.68,19.55-43.68,43.66,19.55,43.68,43.68,43.68c7.77,0,15.06-2.03,21.38-5.59-5.42,2.89-11.61,4.53-18.18,4.53-21.36,0-38.68-17.31-38.68-38.68s17.32-38.67,38.68-38.67,38.69,17.31,38.69,38.67c0,9.34-3.31,17.91-8.84,24.61,6.63-7.65,10.63-17.63,10.63-28.55Z"/>
  </g>
</svg>