<?xml version="1.0" encoding="UTF-8"?>
<svg id="Ebene_2" data-name="Ebene 2" xmlns="http://www.w3.org/2000/svg" xmlns:xlink="http://www.w3.org/1999/xlink" viewBox="0 0 960 960.05"><rect width="960" height="960.05" fill="#ffffff"/>
  <defs>
    <style>
      .cls-1 {
        fill: #1d1b1b;
      }

      .cls-2 {
        fill: url(#Unbenannter_Verlauf_3);
      }

      .cls-3 {
        fill: #3c3c3b;
      }

      .cls-4 {
        fill: url(#Unbenannter_Verlauf_141);
      }
    </style>
    <linearGradient id="Unbenannter_Verlauf_3" data-name="Unbenannter Verlauf 3" x1="182.66" y1="480.03" x2="777.33" y2="480.03" gradientUnits="userSpaceOnUse">
      <stop offset="0" stop-color="#e0b53a"/>
      <stop offset=".5" stop-color="#d4af37"/>
      <stop offset="1" stop-color="#a97c0a"/>
    </linearGradient>
    <linearGradient id="Unbenannter_Verlauf_141" data-name="Unbenannter Verlauf 141" x1="182.64" y1="485.62" x2="777.35" y2="485.62" gradientUnits="userSpaceOnUse">
      <stop offset="0" stop-color="#453b0b"/>
      <stop offset=".51" stop-color="#655617"/>
      <stop offset="1" stop-color="#513d07"/>
    </linearGradient>
  </defs>
  <g id="logo_2.0">
    <g id="rahmen_dunkel">
      <path class="cls-1" d="M480,90.02c52.69,0,103.75,10.3,151.78,30.61,46.43,19.64,88.15,47.77,123.99,83.62s63.98,77.56,83.62,123.99c20.31,48.02,30.61,99.09,30.61,151.78s-10.3,103.75-30.61,151.78c-19.64,46.43-47.77,88.15-83.62,123.99-35.85,35.85-77.56,63.98-123.99,83.62-48.02,20.31-99.09,30.61-151.78,30.61s-103.75-10.3-151.78-30.61c-46.43-19.64-88.15-47.77-123.99-83.62-35.85-35.85-63.98-77.56-83.62-123.99-20.31-48.02-30.61-99.09-30.61-151.78s10.3-103.75,30.61-151.78c19.64-46.43,47.77-88.15,83.62-123.99,35.85-35.85,77.56-63.98,123.99-83.62,48.02-20.31,99.09-30.61,151.78-30.61M480,.02C214.9.02,0,214.93,0,480.02s214.9,480,480,480,480-214.9,480-480S745.1.02,480,.02h0Z"/>
    </g>
    <g id="rahmen_schattierung">
      <path class="cls-3" d="M204.46,203.98c35.93-35.86,77.77-64,124.33-83.66,48.19-20.34,99.41-30.65,152.24-30.65s104.04,10.31,152.24,30.65c2.1.89,4.18,1.79,6.25,2.71-7.27-3.65-14.67-7.07-22.18-10.27-48.56-20.68-100.17-31.16-153.39-31.16s-104.82,10.48-153.39,31.16c-46.95,19.99-89.13,48.63-125.38,85.12-36.27,36.51-64.74,79.02-84.63,126.35-20.59,49.01-31.04,101.1-31.04,154.83s10.45,105.81,31.04,154.83c19.89,47.33,48.36,89.84,84.63,126.35,36.24,36.49,78.42,65.13,125.38,85.12,48.56,20.68,100.17,31.16,153.39,31.16,49.49,0,97.58-9.06,143.12-26.96-40.41,13.74-82.68,20.68-126.03,20.68-52.83,0-104.04-10.31-152.24-30.65-46.57-19.66-88.4-47.8-124.33-83.66-35.94-35.85-64.15-77.6-83.85-124.06-20.38-48.09-30.72-99.19-30.72-151.9s10.33-103.81,30.72-151.9c19.7-46.46,47.91-88.21,83.85-124.06ZM204.46,203.98c35.93-35.86,77.77-64,124.33-83.66,48.19-20.34,99.41-30.65,152.24-30.65s104.04,10.31,152.24,30.65c2.1.89,4.18,1.79,6.25,2.71-7.27-3.65-14.67-7.07-22.18-10.27-48.56-20.68-100.17-31.16-153.39-31.16s-104.82,10.48-153.39,31.16c-46.95,19.99-89.13,48.63-125.38,85.12-36.27,36.51-64.74,79.02-84.63,126.35-20.59,49.01-31.04,101.1-31.04,154.83s10.45,105.81,31.04,154.83c19.89,47.33,48.36,89.84,84.63,126.35,36.24,36.49,78.42,65.13,125.38,85.12,48.56,20.68,100.17,31.16,153.39,31.16,49.49,0,97.58-9.06,143.12-26.96-40.41,13.74-82.68,20.68-126.03,20.68-52.83,0-104.04-10.31-152.24-30.65-46.57-19.66-88.4-47.8-124.33-83.66-35.94-35.85-64.15-77.6-83.85-124.06-20.38-48.09-30.72-99.19-30.72-151.9s10.33-103.81,30.72-151.9c19.7-46.46,47.91-88.21,83.85-124.06Z"/>
      <path class="cls-3" d="M479.91,0c-1.11,0-2.23,0-3.34.02,256.72,11.59,461.26,221.62,461.26,479.02s-216.55,479.53-483.66,479.53c-5.1,0-10.18-.08-15.24-.25,13.5,1.15,27.17,1.73,40.98,1.73,265.11,0,480.02-214.91,480.02-480.02S745.02,0,479.91,0Z"/>
    </g>
    <path id="anker" class="cls-2" d="M776.77,563.07l-40.97-69.8c-1.58-2.84-3.04-2.43-4.41-.04l-41.89,69.91c-1.29,2.54-1.04,4.21,2.59,4l27.06-.11s-.12,3.97-.25,6.75c-1.47,31.41-20.1,74.6-41.11,97.87-27.55,30.54-82.64,55.25-122.64,36.97-29.58-13.53-31.05-41.7-34.22-70.17-8.45-76.15-14.18-274.84-14.18-274.84,3.63.08,7.57.44,10.13-2.64,2.19-2.64.23-3.95,4.4-4.67,18.56-3.15,39.57-3.32,58.39-3.45,14.73-.1,30.5-.59,45.29,1.17,3.88.47,5.36,3.16,8.45,5.18,21.54,14,47.42-7.08,38.86-30.92-6.48-18.04-31.55-22.41-43.81-7.76l-1.17.53c-36.07,2.9-72.34,2.07-108.28-2.22-1.57-6.3-6.43-6.76-12.46-6.76l1.32-51.71c4.25.52,9.74-1.47,10.66-6.08.32-1.6.21-4.89.21-4.89,0,0,2.24-1.68,3.05-2.63,3.5-4.15,4.36-10.05,1.86-14.94-1-1.97-1.24-2.7-2.54-5.05,14.54-11.92,23.71-30.51,23.71-50.79,0-33.96-26.04-61.84-59.25-64.76-.04-.02-.08-.02-.13-.02-1.85-.16-3.74-.24-5.65-.24-2.2,0-4.37.11-6.52.33-32.86,3.26-58.51,30.99-58.51,64.69,0,20.29,9.28,38.41,23.84,50.34-1.32,2.98-1.67,3.55-2.67,5.5-2.49,4.89-1.63,10.79,1.87,14.94.79.95,3.04,2.63,3.04,2.63,0,0-.09,3.29.22,4.89.91,4.62,6.4,6.6,10.65,6.08l.88,51.71c-7.1-.34-10.49,1.45-12.02,6.75-7.01.24-13.94,1.64-20.91,2.24-29.08,2.49-58.3,2.05-87.35-.01-11-11.7-29.31-13.14-40.29-.56-17.66,20.2,3.63,51.2,29.37,41.28,4.94-1.91,8.85-7.2,13.25-7.74,14.6-1.77,30.19-1.26,44.72-1.17,19.07.12,40.17.26,58.96,3.45,4.18.71,2.22,2.03,4.41,4.67,2.55,3.08,6.5,2.72,10.12,2.64,0,0-1.14,49.15-1.72,71.74-1.75,67.47-4.94,135.79-12.46,203.1-3.57,31.9-6.24,62.9-42.42,73.3-41.56,11.96-91.69-12.68-118.1-44.39l-6.48-8.27c-16.35-24.16-29.35-58.24-30.57-84.26-.13-2.77-.24-6.75-.24-6.75l27.05.11c3.63.2,3.88-1.48,2.59-4l-41.89-69.91c-1.38-2.38-2.83-2.8-4.4.04l-40.98,69.8c-1.19,2.35-.57,3.9,2.83,4.2l26.83-.23-.02,2.64v13.29c6.51,119.97,91.12,199.64,200.98,233,17.85,5.42,39.37,8.62,54.03,20.86,3.8,3.18,6.68,7.5,10.52,10.48,1.21.95,1.61,1.04,2.82,0,3.85-2.96,6.7-7.32,10.52-10.49,15.6-12.93,39.78-16.32,58.82-22.3,103.59-32.53,186.64-110.03,195.59-223.06.6-7.6,1-22.84,1-22.84l-.02-2.64,26.83.23c3.4-.3,4.02-1.83,2.83-4.2ZM479.79,214.67c-21.37,0-38.68-17.31-38.68-38.68s17.31-38.67,38.68-38.67,38.68,17.31,38.68,38.67-17.32,38.68-38.68,38.68Z"/>
    <path id="anker_schattierung" class="cls-4" d="M506.96,372.05l7.58,180.7s3.51,58.22,5.39,76.02,2.62,52.88,18.75,68.19c0,0,10.7,12.5,31.82,16.51-53.36,8.28-79.27-13.87-79.85-42.94v-298.49h16.31ZM440.85,249.39l.03,4.07h77.85l.02-4.07h-77.9ZM451.72,260.37l.09,7.36h55.92l.14-7.36h-56.16ZM503.47,830.74c16.4-8.04,54.29-15.25,81.33-27.91,27.03-12.65,75.65-33.77,118.44-92.01-6.02,5.5-12.44-4.33-22.21,6.24-9.77,10.57-33.85,33.3-52.94,41.67-74.88,32.82-147.05,32.18-148.09,58.22v32.14c2.14.75,7.07-10.32,23.47-18.36ZM719.15,567.04s2.02-10.24-.71-9.04c-4.22,1.53-18.93-.02-26.23.62l-2.41,3.97c-2.86,4.82.92,4.56,2.6,4.56,3.04-.09,26.76-.11,26.76-.11ZM734.31,491.5c-2.58,23.28,30.79,66.56,24.94,66.17s-13.09-.74-19.93,1.23,4.69,12.89-11.3,72.98c-12,45.07-21.24,62.63-78.21,116.35-.4,2.64,9.08,10.53,26.27-5.68,72.85-71,70.6-159.17,70.6-159.17l.7-16.21,26.1.11c4.58-.13,4.86-2.17,2.09-6.43l-38.92-66.14c-.56-.99-1.87-2.79-2.33-3.21ZM479.84,849.1v-32.14c-1.4-34.96-130.98-21.84-223.24-106.14,42.79,58.24,91.41,79.35,118.44,92.01,27.03,12.65,64.92,19.87,81.33,27.91s21.33,19.12,23.47,18.36ZM212.88,568.1s1.98-10.22-.75-9.01c-4.22,1.53-19.02-.01-26.32.63l-2.33,3.96c-2.67,4.24,1.73,4.65,2.63,4.65,3.04-.09,26.77-.23,26.77-.23ZM227.62,492.95c-2.58,23.28,30.96,66.03,25.12,65.64s-13.09-.74-19.93,1.23c-6.84,1.97.22,61.91,13.29,84.64,13.07,22.72,29.03,49.7,82.07,60.05-77.65-34.3-86.43-122.29-86.43-122.29l-.88-14.13,26.1.11c5.72.49,4.86-2.17,2.09-6.43l-39.72-66.29c-.56-.99-1.24-2.12-1.7-2.53ZM452.6,312.07h53.95l.41-7.93h-54.44l.08,7.93ZM452.85,372.05h54.11l-.21-8.43h-53.89v8.43ZM669.05,351.07c-6.07,9.85-18.35,15.91-31.85,10.7-4.94-1.91-8.85-7.2-13.25-7.74-14.6-1.77-30.19-1.26-44.72-1.17-19.07.12-40.17.26-58.96,3.45,14.16-14.44,65.69-11.83,88.96-11.49,7.84.12,18.7-4.1,18.7-4.1,10.66,20.01,35.53,13.89,41.12,10.35ZM330.67,340.72s10.85,4.22,18.7,4.1c23.26-.34,74.8-2.95,88.96,11.49-18.79-3.19-39.89-3.33-58.96-3.45-14.53-.09-30.12-.6-44.72,1.17-4.39.54-8.3,5.84-13.25,7.74-13.5,5.21-25.78-.85-31.85-10.7,5.59,3.54,30.46,9.66,41.12-10.35ZM521.12,227.01h-.3l-17.72-.15-64.5-.54-2.88,5.93h88.14l-2.75-5.24ZM516.23,122.1c12.14,12.09,19.66,28.82,19.66,47.3,0,24.46-13.15,45.85-32.77,57.46l17.72.15c14.76-11.98,24.19-30.26,24.19-50.76,0-22.54-11.42-42.41-28.79-54.16ZM509.64,200.6c5.52-6.69,8.84-15.26,8.84-24.61,0-21.36-17.32-38.67-38.69-38.67s-38.68,17.31-38.68,38.67,17.32,38.68,38.68,38.68c6.57,0,12.76-1.64,18.18-4.53-6.32,3.56-13.61,5.59-21.38,5.59-24.13,0-43.68-19.55-43.68-43.68s19.55-43.66,43.68-43.66,43.68,19.55,43.68,43.66c0,10.92-4,20.9-10.63,28.55Z"/>
  </g>
</svg>
