<?xml version="1.0" encoding="UTF-8"?>
<svg id="Ebene_2" data-name="Ebene 2" xmlns="http://www.w3.org/2000/svg" viewBox="0 0 1000 1000">
  <defs>
    <style>
      .cls-1 {
        fill: #353738;
      }

      .cls-2 {
        fill: #242626;
      }
    </style>
  </defs>
  <g id="logo_vII">
    <path class="cls-1" d="M500,50c60.77,0,119.7,11.89,175.15,35.34,53.58,22.66,101.71,55.12,143.05,96.46,41.34,41.34,73.8,89.47,96.46,143.05,23.45,55.45,35.34,114.37,35.34,175.15s-11.89,119.7-35.34,175.14c-22.66,53.58-55.12,101.71-96.46,143.05-41.34,41.34-89.47,73.8-143.05,96.46-55.45,23.45-114.37,35.34-175.15,35.34s-119.7-11.89-175.14-35.34c-53.58-22.66-101.71-55.12-143.05-96.46-41.34-41.34-73.8-89.47-96.46-143.05-23.45-55.45-35.34-114.37-35.34-175.14s11.89-119.7,35.34-175.15c22.66-53.58,55.12-101.71,96.46-143.05,41.34-41.34,89.47-73.8,143.05-96.46,55.45-23.45,114.37-35.34,175.14-35.34M500,0C223.86,0,0,223.86,0,500s223.86,500,500,500,500-223.86,500-500S776.14,0,500,0h0Z"/>
    <path class="cls-1" d="M845.07,596.56l-47.64-81.16c-1.84-3.31-3.53-2.82-5.13-.05l-48.71,81.29c-1.5,2.95-1.21,4.89,3.01,4.66l31.47-.13s-.14,4.62-.3,7.84c-1.71,36.53-23.38,86.74-47.79,113.8-32.04,35.51-96.09,64.24-142.6,42.98-34.39-15.73-36.1-48.48-39.79-81.59-9.82-88.54-16.49-319.56-16.49-319.56,4.22.09,8.8.51,11.78-3.07,2.55-3.07.27-4.6,5.12-5.43,21.58-3.66,46.01-3.86,67.89-4.02,17.13-.12,35.46-.69,52.66,1.36,4.51.55,6.23,3.67,9.82,6.02,25.05,16.28,55.14-8.23,45.19-35.95-7.54-20.97-36.68-26.05-50.93-9.03l-1.36.62c-41.94,3.38-84.11,2.41-125.9-2.58-1.82-7.32-7.48-7.86-14.49-7.86l1.54-60.12c4.94.6,11.33-1.71,12.39-7.07.37-1.86.25-5.69.25-5.69,0,0,2.61-1.95,3.54-3.06,4.06-4.82,5.07-11.68,2.17-17.37-1.16-2.29-1.45-3.15-2.96-5.87,16.91-13.86,27.56-35.48,27.56-59.05,0-39.49-30.28-71.91-68.9-75.29-.05-.02-.09-.02-.15-.02-2.16-.19-4.35-.28-6.56-.28-2.56,0-5.08.13-7.58.38-38.21,3.79-68.03,36.03-68.03,75.22,0,23.59,10.79,44.66,27.72,58.53-1.54,3.47-1.94,4.12-3.1,6.4-2.89,5.69-1.9,12.55,2.18,17.37.92,1.1,3.53,3.06,3.53,3.06,0,0-.11,3.83.26,5.69,1.05,5.37,7.44,7.68,12.38,7.07l1.02,60.12c-8.26-.39-12.19,1.69-13.98,7.85-8.15.28-16.21,1.91-24.31,2.61-33.81,2.89-67.78,2.38-101.56-.01-12.8-13.6-34.07-15.28-46.85-.65-20.53,23.48,4.22,59.54,34.15,48,5.75-2.22,10.3-8.38,15.4-9,16.98-2.06,35.11-1.47,52-1.36,22.17.14,46.7.31,68.55,4.02,4.86.83,2.58,2.36,5.13,5.43,2.96,3.58,7.56,3.16,11.77,3.07,0,0-1.33,57.14-2,83.41-2.04,78.45-5.75,157.89-14.49,236.15-4.15,37.1-7.25,73.14-49.32,85.23-48.33,13.91-106.61-14.74-137.32-51.61l-7.54-9.62c-19.02-28.09-34.12-67.72-35.54-97.97-.15-3.22-.28-7.84-.28-7.84l31.46.13c4.22.24,4.51-1.72,3.01-4.66l-48.71-81.29c-1.6-2.77-3.29-3.26-5.12.05l-47.65,81.16c-1.39,2.74-.66,4.54,3.29,4.88l31.2-.27-.02,3.07v15.45c7.57,139.5,105.94,232.13,233.69,270.92,20.76,6.3,45.78,10.02,62.82,24.25,4.42,3.7,7.77,8.72,12.23,12.18,1.4,1.1,1.87,1.21,3.28,0,4.48-3.44,7.8-8.51,12.23-12.19,18.14-15.04,46.25-18.98,68.39-25.92,120.45-37.82,217.01-127.93,227.42-259.36.7-8.84,1.16-26.55,1.16-26.55l-.02-3.07,31.2.27c3.96-.34,4.68-2.13,3.29-4.88ZM499.76,191.45c-24.85,0-44.97-20.13-44.97-44.97s20.13-44.96,44.97-44.96,44.97,20.13,44.97,44.96-20.14,44.97-44.97,44.97Z"/>
    <path class="cls-2" d="M531.35,374.45l8.82,210.11s4.08,67.69,6.27,88.39c2.19,20.7,3.05,61.48,21.8,79.29,0,0,12.44,14.53,36.99,19.2-62.04,9.63-92.17-16.12-92.84-49.93v-347.07h18.96Z"/>
    <polygon class="cls-2" points="454.48 231.83 454.51 236.56 545.03 236.56 545.06 231.83 454.48 231.83"/>
    <polygon class="cls-2" points="467.12 244.59 467.23 253.15 532.25 253.15 532.41 244.59 467.12 244.59"/>
    <path class="cls-2" d="M500,929.13v-37.37c1.21-30.28,85.12-29.54,172.19-67.7,22.19-9.73,50.19-36.16,61.55-48.45,11.36-12.29,18.82-.86,25.82-7.26-49.75,67.72-106.28,92.27-137.72,106.98-31.43,14.71-75.49,23.11-94.56,32.45s-24.8,22.23-27.29,21.35Z"/>
    <path class="cls-2" d="M778.07,601.17s2.35-11.91-.82-10.51c-4.91,1.78-22.01-.02-30.5.72l-2.81,4.62c-3.32,5.6,1.07,5.3,3.02,5.3,3.54-.1,31.11-.13,31.11-.13Z"/>
    <path class="cls-2" d="M795.7,513.34c-3.01,27.07,35.8,77.39,29,76.94-6.79-.45-15.22-.86-23.17,1.43-7.95,2.29,5.45,14.98-13.14,84.85-13.95,52.4-24.7,72.83-90.93,135.28-.46,3.07,10.55,12.25,30.54-6.6,84.71-82.55,82.09-185.07,82.09-185.07l.81-18.84,30.34.13c5.32-.15,5.65-2.53,2.43-7.48l-45.25-76.91c-.66-1.15-2.17-3.25-2.71-3.73Z"/>
    <path class="cls-2" d="M499.81,929.13v-37.37c-1.63-40.65-152.3-25.39-259.57-123.41,49.75,67.72,106.28,92.27,137.72,106.98,31.43,14.71,75.49,23.11,94.56,32.45s24.8,22.23,27.29,21.35Z"/>
    <path class="cls-2" d="M189.42,602.4s2.31-11.88-.87-10.48c-4.91,1.78-22.11-.01-30.6.73l-2.71,4.61c-3.11,4.94,2.01,5.41,3.05,5.4,3.54-.1,31.13-.27,31.13-.27Z"/>
    <path class="cls-2" d="M206.55,515.03c-3.01,27.07,36,76.78,29.2,76.32-6.79-.45-15.22-.86-23.17,1.43-7.95,2.29.25,71.99,15.45,98.41s33.76,57.79,95.43,69.82c-90.28-39.88-100.5-142.19-100.5-142.19l-1.02-16.43,30.34.13c6.65.57,5.65-2.53,2.43-7.48l-46.18-77.08c-.66-1.15-1.44-2.46-1.98-2.94Z"/>
    <polygon class="cls-2" points="468.14 304.71 530.87 304.71 531.35 295.49 468.05 295.49 468.14 304.71"/>
    <polygon class="cls-2" points="468.44 364.65 531.1 364.65 531.35 374.45 468.44 374.45 468.44 364.65"/>
    <path class="cls-2" d="M672,338.02s-12.62,4.9-21.74,4.77c-27.05-.4-86.97-3.43-103.43,13.36,21.85-3.71,46.38-3.87,68.55-4.02,16.9-.11,35.02-.7,52,1.36,5.11.63,9.66,6.79,15.4,9,15.7,6.05,29.97-.99,37.04-12.45-6.51,4.12-35.42,11.23-47.82-12.03Z"/>
    <path class="cls-2" d="M278.55,350.06c7.06,11.46,21.34,18.5,37.04,12.45,5.75-2.22,10.3-8.38,15.4-9,16.98-2.06,35.11-1.47,52-1.36,22.17.14,46.7.31,68.55,4.02-16.46-16.79-76.38-13.76-103.43-13.36-9.12.13-21.74-4.77-21.74-4.77-12.4,23.27-41.31,16.15-47.82,12.03Z"/>
    <polygon class="cls-2" points="551.01 211.91 448.53 211.91 451.88 205.01 526.87 205.63 547.47 205.81 547.81 205.81 551.01 211.91"/>
    <path class="cls-2" d="M575.59,146.79c0,23.83-10.97,45.09-28.12,59.02l-20.6-.18c22.81-13.51,38.11-38.37,38.11-66.82,0-21.49-8.74-40.94-22.86-55,20.19,13.65,33.47,36.77,33.47,62.97Z"/>
    <path class="cls-2" d="M546.83,141.9c0-28.04-22.74-50.77-50.78-50.77s-50.78,22.73-50.78,50.77,22.73,50.78,50.78,50.78c9.03,0,17.51-2.36,24.85-6.5-6.3,3.36-13.5,5.27-21.14,5.27-24.84,0-44.97-20.13-44.97-44.97s20.13-44.96,44.97-44.96,44.98,20.13,44.98,44.96c0,10.87-3.85,20.83-10.27,28.61,7.71-8.9,12.36-20.5,12.36-33.2Z"/>
  </g>
</svg>