<svg xmlns="http://www.w3.org/2000/svg" width="1600" height="500" viewBox="0 0 1600 500">
  <rect width="1600" height="500" fill="#ffffff"/>
  <svg x="590.0" y="40.0" width="420" height="420" viewBox="0 0 960 960.05" xmlns="http://www.w3.org/2000/svg" xmlns:xlink="http://www.w3.org/1999/xlink">
  <defs>
    <style>
      .cls-1 {
        fill: #1d1b1b;
      }

      .cls-2 {
        fill: url(#Unbenannter_Verlauf_3);
      }

      .cls-3 {
        fill: #3c3c3b;
      }

      .cls-4 {
        fill: url(#Unbenannter_Verlauf_141);
      }
    </style>
    <linearGradient id="Unbenannter_Verlauf_3" data-name="Unbenannter Verlauf 3" x1="200.28" y1="478.78" x2="759.72" y2="478.78" gradientUnits="userSpaceOnUse">
      <stop offset="0" stop-color="#e0b53a"/>
      <stop offset=".5" stop-color="#d4af37"/>
      <stop offset="1" stop-color="#a97c0a"/>
    </linearGradient>
    <linearGradient id="Unbenannter_Verlauf_141" data-name="Unbenannter Verlauf 141" x1="200.32" y1="483.48" x2="759.35" y2="483.48" gradientUnits="userSpaceOnUse">
      <stop offset="0" stop-color="#453b0b"/>
      <stop offset=".51" stop-color="#655617"/>
      <stop offset="1" stop-color="#513d07"/>
    </linearGradient>
  </defs>
  <g id="logo_2.0">
    <g id="rahmen_dunkel">
      <path class="cls-1" d="M480,90.02c52.69,0,103.75,10.3,151.78,30.61,46.43,19.64,88.15,47.77,123.99,83.62s63.98,77.56,83.62,123.99c20.31,48.02,30.61,99.09,30.61,151.78s-10.3,103.75-30.61,151.78c-19.64,46.43-47.77,88.15-83.62,123.99-35.85,35.85-77.56,63.98-123.99,83.62-48.02,20.31-99.09,30.61-151.78,30.61s-103.75-10.3-151.78-30.61c-46.43-19.64-88.15-47.77-123.99-83.62-35.85-35.85-63.98-77.56-83.62-123.99-20.31-48.02-30.61-99.09-30.61-151.78s10.3-103.75,30.61-151.78c19.64-46.43,47.77-88.15,83.62-123.99,35.85-35.85,77.56-63.98,123.99-83.62,48.02-20.31,99.09-30.61,151.78-30.61M480,.02C214.9.02,0,214.93,0,480.02s214.9,480,480,480,480-214.9,480-480S745.1.02,480,.02h0Z"/>
    </g>
    <g id="rahmen_schattierung">
      <path class="cls-3" d="M204.56,204.08c35.93-35.86,77.77-64,124.33-83.66,48.19-20.34,99.41-30.65,152.24-30.65s104.04,10.31,152.24,30.65c2.1.89,4.18,1.79,6.25,2.71-7.27-3.65-14.67-7.07-22.18-10.27-48.56-20.68-100.17-31.16-153.39-31.16s-104.82,10.48-153.39,31.16c-46.95,19.99-89.13,48.63-125.38,85.12-36.27,36.51-64.74,79.02-84.63,126.35-20.59,49.01-31.04,101.1-31.04,154.83s10.45,105.81,31.04,154.83c19.89,47.33,48.36,89.84,84.63,126.35,36.24,36.49,78.42,65.13,125.38,85.12,48.56,20.68,100.17,31.16,153.39,31.16,49.49,0,97.58-9.06,143.12-26.96-40.41,13.74-82.68,20.68-126.03,20.68-52.83,0-104.04-10.31-152.24-30.65-46.57-19.66-88.4-47.8-124.33-83.66-35.94-35.85-64.15-77.6-83.85-124.06-20.38-48.09-30.72-99.19-30.72-151.9s10.33-103.81,30.72-151.9c19.7-46.46,47.91-88.21,83.85-124.06ZM204.56,204.08c35.93-35.86,77.77-64,124.33-83.66,48.19-20.34,99.41-30.65,152.24-30.65s104.04,10.31,152.24,30.65c2.1.89,4.18,1.79,6.25,2.71-7.27-3.65-14.67-7.07-22.18-10.27-48.56-20.68-100.17-31.16-153.39-31.16s-104.82,10.48-153.39,31.16c-46.95,19.99-89.13,48.63-125.38,85.12-36.27,36.51-64.74,79.02-84.63,126.35-20.59,49.01-31.04,101.1-31.04,154.83s10.45,105.81,31.04,154.83c19.89,47.33,48.36,89.84,84.63,126.35,36.24,36.49,78.42,65.13,125.38,85.12,48.56,20.68,100.17,31.16,153.39,31.16,49.49,0,97.58-9.06,143.12-26.96-40.41,13.74-82.68,20.68-126.03,20.68-52.83,0-104.04-10.31-152.24-30.65-46.57-19.66-88.4-47.8-124.33-83.66-35.94-35.85-64.15-77.6-83.85-124.06-20.38-48.09-30.72-99.19-30.72-151.9s10.33-103.81,30.72-151.9c19.7-46.46,47.91-88.21,83.85-124.06Z"/>
      <path class="cls-3" d="M479.98,0c-1.11,0-2.23,0-3.34.02,256.72,11.59,461.26,221.62,461.26,479.02s-216.55,479.53-483.66,479.53c-5.1,0-10.18-.08-15.24-.25,13.5,1.15,27.17,1.73,40.98,1.73,265.11,0,480.02-214.91,480.02-480.02S745.09,0,479.98,0Z"/>
    </g>
    <path class="cls-2" d="M758.69,554.59l-38-64.76c-1.96-3.49-4.43-4.24-6.17-4.26h-.05c-1.74,0-4.21.74-6.17,4.14l-38.73,64.64-.16.29c-1.52,2.99-1.59,5.59-.19,7.74.95,1.46,2.94,3.17,7,2.97l19.9-.08c-.02.41-.03.8-.05,1.18-1.27,27.18-17.77,66.43-36.77,87.49-12.51,13.86-31.34,26.09-50.38,32.69-21.32,7.4-41.71,7.52-57.43.33-7.66-3.5-13.05-8.15-16.94-13.68-8.36-19.42-9.06-43.39-9.06-43.39-.15-1.4-.3-2.81-.46-4.22-6.83-61.56-11.8-212.35-12.86-246.55,2.59-.61,5.26-1.9,7.49-4.58.61-.73,1.07-1.44,1.42-2.09,16.32-2.57,34.77-2.7,51.12-2.81,1.97-.01,3.95-.03,5.95-.06,11.69-.12,23.77-.25,35.09,1.1.23.09.94.71,1.41,1.12.84.73,1.89,1.65,3.25,2.53,11.62,7.55,26.02,6.98,36.68-1.46,10.77-8.53,14.69-22.51,9.98-35.62-3.69-10.27-12.57-17.59-23.74-19.58-10.31-1.83-20.35,1.26-27.36,8.3-30.37,2.31-61.44,1.73-92.46-1.72-2.32-3.63-5.77-5.32-9.07-6.1l.9-34.92c4.75-1.6,8.81-5.18,9.88-10.57.15-.76.24-1.63.29-2.5.43-.4.83-.81,1.16-1.2,5.13-6.09,6.2-14.48,2.78-21.46,12.75-12.56,20.21-30.33,20.21-48.63,0-16.94-6.32-33.14-17.79-45.59-11.32-12.29-26.66-19.9-43.24-21.44-.21-.03-.42-.05-.63-.06-4.05-.35-8.27-.32-12.44.1-34.55,3.43-60.6,32.23-60.6,67,0,18.34,7.37,35.64,20.39,48.29l-.03.06c-3.59,7.06-2.54,15.59,2.64,21.72.33.4.74.81,1.17,1.22.05.86.14,1.73.29,2.49,1.06,5.38,5.08,8.96,9.82,10.56l.59,34.87c-3.01.79-6.2,2.46-8.5,5.92-2.62.24-5.19.58-7.7.92-2.61.35-5.08.68-7.53.89-23.48,2.01-48.7,2.06-77,.16-6.47-5.83-14.8-9.05-23.2-8.89-8.75.16-16.79,3.94-22.63,10.64-9.58,10.95-10.37,26.38-1.97,38.4,8.43,12.05,23.36,16.58,37.16,11.26,3.02-1.17,5.4-2.99,7.5-4.59,1-.77,2.5-1.91,3.14-2.15,10.95-1.32,22.72-1.19,34.11-1.07,2.09.02,4.16.04,6.2.06,16.55.11,35.23.23,51.66,2.81.35.65.81,1.35,1.42,2.08,2.24,2.7,4.93,3.99,7.54,4.6-.32,13.56-1.03,43.62-1.43,59.37-1.98,76.06-5.52,133.79-11.48,187.17l-.21,1.93s-2.81,24.22-9.7,46.23c-4.99,7.11-12.33,12.6-23.46,15.8-37.32,10.74-81.47-12.3-104.11-39.44l-5.84-7.46c-15.31-22.67-26.3-52.91-27.35-75.3-.02-.37-.03-.77-.05-1.17l19.9.08c4.06.2,6.05-1.51,7-2.97,1.4-2.15,1.34-4.76-.19-7.74l-38.84-64.85c-2.02-3.5-4.51-4.22-6.27-4.21-1.73.02-4.2.77-6.15,4.26l-37.86,64.49-.14.26c-1.65,3.26-1.03,5.67-.22,7.13,1.22,2.19,3.48,3.45,6.72,3.73l.23.02,20.16-.18v9.87s.01.26.01.26c2.94,54.23,22.56,101.58,58.32,140.73,32.49,35.57,77.75,62.9,130.9,79.04,3.83,1.16,7.9,2.23,11.83,3.27,13.17,3.47,26.79,7.05,36.43,15.1,1.41,1.18,2.73,2.64,4.13,4.18,1.74,1.92,3.54,3.91,5.71,5.59,1.46,1.15,2.9,1.72,4.33,1.72s2.88-.58,4.28-1.75c2.19-1.69,3.96-3.67,5.68-5.58,1.39-1.54,2.7-3,4.09-4.15,10-8.29,24.56-12.1,38.64-15.8,4.94-1.29,9.6-2.52,14.11-3.93,50.18-15.76,93.51-42.22,125.32-76.52,34.53-37.24,54.89-83.55,58.88-133.93.43-5.43.74-14.76.87-19.08l20.23.18.23-.02c3.24-.28,5.5-1.53,6.72-3.72.81-1.45,1.43-3.87-.22-7.13ZM479.81,170.34c15.74,0,28.54,12.8,28.54,28.53s-12.8,28.54-28.54,28.54-28.54-12.8-28.54-28.54,12.8-28.53,28.54-28.53Z"/>
    <path id="schattierung" class="cls-4" d="M512.16,379.1l-64.64.02-.18,7.59h65.07l-.25-7.61ZM574.72,692.18c.63.02,1.12.03,1.46.04-.49,0-.98-.01-1.46-.04ZM509.67,196.05c0-17.77-14.42-32.18-32.2-32.18s-32.19,14.41-32.19,32.18,14.41,32.19,32.19,32.19c5.73,0,11.1-1.49,15.76-4.11-3.99,2.13-8.56,3.34-13.4,3.34-15.74,0-28.51-12.76-28.51-28.51s12.77-28.51,28.51-28.51,28.51,12.76,28.51,28.51c0,6.89-2.44,13.2-6.51,18.14,4.89-5.65,7.84-13,7.84-21.05ZM514.16,140.94c12.24,12.19,23.84,31.61,23.84,50.25,0,24.67-9.67,44.75-29.46,56.47l18.3-.16c13.83-13.73,20.27-30.52,20.27-51.19,0-22.73-14.61-44.54-32.95-55.37ZM526.94,247.5h-.1l-18.3.16-14.05.12-61.63-.62c-1.14,2.09-1.97,5.28-2.05,6.95h98.02c-.05-1.54-.86-4.62-1.89-6.61ZM615.74,357.41s-10.21,3.97-17.59,3.86c-21.88-.32-63.64-2.57-76.95,11.02,17.27-2.28,30.98-2.68,48.92-2.8,13.67-.08,29.31-.67,43.05,1,3.22,3.14,6.2,4.99,11.3,7,15.46,5.47,30.71-.78,37.78-13.51-5.26,3.33-36.48,12.26-46.51-6.57ZM759.25,558.12c-6.88-.61-23.29,1.15-27.27-.28-2.57-1.14-.7,8.47-.7,8.47,0,0,17.27.04,20.13.12.85.01,5.25-.63,6.83-3.08,1.57-2.45,1.01-5.23,1.01-5.23ZM480,794.35l-.34,31.66h0s.05.01.05.01c.04,0,.08,0,.12-.01.04.01.08.01.12.01.01,0,.03,0,.05-.01,6.57-.3,8.67-10.33,23.84-17.76,15.43-7.56,50.18-13.87,75.61-25.77,25.43-11.91,72.32-32.02,111.89-88.15-86.79,79.31-210.03,67.14-211.34,100.02ZM361.61,361.41c-7.38.11-17.59-3.85-17.59-3.85-10.03,18.82-41.25,9.89-46.51,6.56,7.07,12.73,22.32,18.98,37.78,13.51,5.11-2.01,7.46-4.61,11.31-6.99,13.73-1.67,29.38-1.09,43.05-1,17.93.12,31.65.52,48.92,2.8-13.32-13.59-55.08-11.35-76.96-11.03ZM447.2,310.63l.13,7.46,64.61.06.18-7.52h-64.92ZM266.53,585.58c-2.53-10.56-2.65-19.34-2.65-19.34l19.9.08c2.39.18,5.05-.2,7-2.97,1.94-2.77.42-6.27-.6-8.42l-34.4-57.42c-.53-.93-4.66-7.9-5.09-8.28-2.43,21.9,29.9,68.18,24.4,67.81-5.49-.37-12.31-.7-18.74,1.16-6.44,1.85.2,58.24,12.5,79.62,12.29,21.38,32.72,39.49,82.61,49.23-67.24-22.25-82.4-90.91-84.93-101.47ZM227.68,557.84c-3.97,1.43-20.39-.33-27.26.28,0,0-.57,2.78,1.01,5.23,1.57,2.45,5.98,3.09,6.82,3.08,2.86-.08,20.14-.12,20.14-.12,0,0,1.86-9.61-.71-8.47ZM268.33,694.33c39.56,56.13,86.46,76.24,111.89,88.15,25.43,11.9,60.18,18.21,75.61,25.77,15.17,7.43,17.27,17.46,23.83,17.76.02.01.04.01.05.01.04,0,.08,0,.12-.01.04.01.08.01.12.01h.05v-31.67c-1.31-32.88-124.89-20.71-211.67-100.02ZM446.74,283.21l.12,6.99h65.8l.18-6.97-66.1-.02ZM436.63,270.17c-.03,1.83.84,5.24,1.74,6.42l83.07-.34c1.1-1.92,1.49-4.23,1.56-6.09h-86.37ZM576.54,692.23c.12,0,.18,0,.18,0h.29c-.15,0-.31,0-.47,0ZM703.32,558.2c-6.44-1.86-13.25-1.53-18.75-1.16s26.84-45.91,24.41-67.81c-.44.38-4.57,7.35-5.1,8.28l-34.39,57.42c-1.03,2.15-2.55,5.65-.6,8.42,1.94,2.77,4.61,3.15,7,2.97l19.89-.08s-.12,8.78-2.64,19.34c-3.05,9.16-14.64,73.34-79.2,99.14-1.97.79-4,1.54-6.08,2.26.09-.02.18-.04.28-.06-2.96,1.01-6.19,1.97-9.5,2.72-9.16,2.06-16.64,2.5-20,2.58-1.45.11-2.77.05-4.3-.05h-.05c-.73-.03-1.45-.08-2.17-.13-22.53-1.65-34.17-12.89-37.76-19.07-3.97-6.82-8.04-35.04-9.82-51.78-1.77-16.75-5.71-71.58-5.71-71.58l-6.67-170.51.17,5.32c.05,1.25-.96,2.29-2.21,2.29h-11.55c-1.23,0-2.22.99-2.22,2.22v271.49c.29,14.43,10.22,28.92,26.51,35.99.78.41,1.62.77,2.51,1.06-.38-.16-.76-.32-1.14-.48,1.49.6,2.29.85,1.19.49,40.28,16.57,79.17,9.05,109.47-5.24,31.13-14.67,40.08-31.12,55.26-54.59,15.18-23.46,19.6-77.6,13.17-79.45Z"/>
  </g>
</svg>
</svg>
