<svg xmlns="http://www.w3.org/2000/svg" width="1600" height="500" viewBox="0 0 1600 500">
  <rect width="1600" height="500" fill="#ffffff"/>
  <svg x="184.6" y="40.0" width="420" height="420" viewBox="0 0 994 994" xmlns="http://www.w3.org/2000/svg">
  <defs>
    <style>
      .cls-1 {
        fill: #fff;
      }

      .cls-2 {
        fill: #353738;
      }

      .cls-3 {
        fill: #242626;
      }
    </style>
  </defs>
  <g id="logo_vII">
    <path class="cls-1" d="M497,20c263.44,0,477,213.56,477,477s-213.56,477-477,477S20,760.44,20,497,233.56,20,497,20M497,0c-67.09,0-132.18,13.14-193.46,39.07-59.18,25.03-112.33,60.87-157.97,106.5-45.64,45.64-81.47,98.79-106.5,157.97C13.14,364.82,0,429.91,0,497s13.14,132.18,39.06,193.46c25.03,59.18,60.87,112.33,106.5,157.97,45.64,45.64,98.79,81.47,157.97,106.5,61.29,25.92,126.38,39.06,193.46,39.06s132.18-13.14,193.46-39.06c59.18-25.03,112.33-60.87,157.97-106.5,45.64-45.64,81.47-98.79,106.5-157.97,25.92-61.29,39.07-126.38,39.07-193.46s-13.14-132.18-39.07-193.46c-25.03-59.18-60.87-112.33-106.5-157.97-45.64-45.64-98.79-81.47-157.97-106.5C629.18,13.14,564.09,0,497,0h0Z"/>
    <g>
      <path class="cls-1" d="M497,939c-59.69,0-117.57-11.68-172.04-34.72-52.63-22.26-99.9-54.14-140.51-94.74-40.6-40.6-72.48-87.88-94.74-140.51-23.04-54.47-34.72-112.35-34.72-172.04s11.68-117.57,34.72-172.04c22.26-52.63,54.13-99.9,94.74-140.51,40.6-40.6,87.88-72.48,140.51-94.74,54.47-23.04,112.35-34.72,172.04-34.72s117.57,11.68,172.04,34.72c52.63,22.26,99.9,54.13,140.51,94.74,40.6,40.6,72.48,87.88,94.74,140.51,23.04,54.47,34.72,112.35,34.72,172.04s-11.68,117.57-34.72,172.04c-22.26,52.63-54.14,99.9-94.74,140.51s-87.88,72.48-140.51,94.74c-54.47,23.04-112.35,34.72-172.04,34.72Z"/>
      <path class="cls-2" d="M497,90c54.98,0,108.27,10.75,158.4,31.96,48.46,20.5,91.99,49.85,129.39,87.25,37.4,37.4,66.76,80.93,87.25,129.39,21.2,50.13,31.96,103.43,31.96,158.4s-10.75,108.27-31.96,158.4c-20.5,48.46-49.85,91.99-87.25,129.39-37.4,37.4-80.93,66.76-129.39,87.25-50.13,21.2-103.43,31.96-158.4,31.96s-108.27-10.75-158.4-31.96c-48.46-20.5-91.99-49.85-129.39-87.25-37.4-37.4-66.76-80.93-87.25-129.39-21.2-50.13-31.96-103.43-31.96-158.4s10.75-108.27,31.96-158.4c20.5-48.46,49.85-91.99,87.25-129.39,37.4-37.4,80.93-66.76,129.39-87.25,50.13-21.2,103.43-31.96,158.4-31.96M497,20C233.56,20,20,233.56,20,497s213.56,477,477,477,477-213.56,477-477S760.44,20,497,20h0Z"/>
    </g>
    <path class="cls-3" d="M207.84,208.17c37.52-37.53,81.2-66.98,129.83-87.55,50.32-21.28,103.8-32.07,158.96-32.07s108.64,10.79,158.96,32.07c2.19.93,4.37,1.87,6.53,2.84-7.59-3.82-15.31-7.4-23.16-10.75-50.71-21.64-104.59-32.61-160.16-32.61s-109.45,10.97-160.16,32.61c-49.03,20.92-93.07,50.89-130.91,89.07-37.87,38.2-67.6,82.69-88.37,132.22-21.5,51.29-32.41,105.8-32.41,162.02s10.91,110.73,32.41,162.02c20.77,49.52,50.49,94.02,88.37,132.22,37.85,38.18,81.89,68.15,130.91,89.07,50.71,21.64,104.59,32.61,160.16,32.61,51.67,0,101.88-9.48,149.44-28.21-42.19,14.37-86.33,21.64-131.6,21.64-55.16,0-108.64-10.79-158.96-32.07-48.62-20.57-92.31-50.02-129.83-87.55-37.53-37.52-66.98-81.2-87.55-129.83-21.28-50.32-32.07-103.8-32.07-158.96s10.79-108.64,32.07-158.96c20.57-48.62,50.02-92.31,87.55-129.83ZM207.84,208.17c37.52-37.53,81.2-66.98,129.83-87.55,50.32-21.28,103.8-32.07,158.96-32.07s108.64,10.79,158.96,32.07c2.19.93,4.37,1.87,6.53,2.84-7.59-3.82-15.31-7.4-23.16-10.75-50.71-21.64-104.59-32.61-160.16-32.61s-109.45,10.97-160.16,32.61c-49.03,20.92-93.07,50.89-130.91,89.07-37.87,38.2-67.6,82.69-88.37,132.22-21.5,51.29-32.41,105.8-32.41,162.02s10.91,110.73,32.41,162.02c20.77,49.52,50.49,94.02,88.37,132.22,37.85,38.18,81.89,68.15,130.91,89.07,50.71,21.64,104.59,32.61,160.16,32.61,51.67,0,101.88-9.48,149.44-28.21-42.19,14.37-86.33,21.64-131.6,21.64-55.16,0-108.64-10.79-158.96-32.07-48.62-20.57-92.31-50.02-129.83-87.55-37.53-37.52-66.98-81.2-87.55-129.83-21.28-50.32-32.07-103.8-32.07-158.96s10.79-108.64,32.07-158.96c20.57-48.62,50.02-92.31,87.55-129.83Z"/>
    <path class="cls-3" d="M497,20c-1.1,0-2.21,0-3.31.02,255.1,11.52,458.35,220.23,458.35,476s-215.18,476.51-480.61,476.51c-5.07,0-10.12-.08-15.15-.25,13.42,1.14,27,1.72,40.72,1.72,263.44,0,477-213.56,477-477S760.44,20,497,20Z"/>
    <path class="cls-2" d="M793.77,580.05l-40.97-69.8c-1.58-2.84-3.04-2.43-4.41-.04l-41.89,69.91c-1.29,2.54-1.04,4.21,2.59,4l27.06-.11s-.12,3.97-.25,6.75c-1.47,31.41-20.1,74.6-41.11,97.87-27.55,30.54-82.64,55.25-122.64,36.97-29.58-13.53-31.05-41.7-34.22-70.17-8.45-76.15-14.18-274.84-14.18-274.84,3.63.08,7.57.44,10.13-2.64,2.19-2.64.23-3.95,4.4-4.67,18.56-3.15,39.57-3.32,58.39-3.45,14.73-.1,30.5-.59,45.29,1.17,3.88.47,5.36,3.16,8.45,5.18,21.54,14,47.42-7.08,38.86-30.92-6.48-18.04-31.55-22.41-43.81-7.76l-1.17.53c-36.07,2.9-72.34,2.07-108.28-2.22-1.57-6.3-6.43-6.76-12.46-6.76l1.32-51.71c4.25.52,9.74-1.47,10.66-6.08.32-1.6.21-4.89.21-4.89,0,0,2.24-1.68,3.05-2.63,3.5-4.15,4.36-10.05,1.86-14.94-1-1.97-1.24-2.7-2.54-5.05,14.54-11.92,23.71-30.51,23.71-50.79,0-33.96-26.04-61.84-59.25-64.76-.04-.02-.08-.02-.13-.02-1.85-.16-3.74-.24-5.65-.24-2.2,0-4.37.11-6.52.33-32.86,3.26-58.51,30.99-58.51,64.69,0,20.29,9.28,38.41,23.84,50.34-1.32,2.98-1.67,3.55-2.67,5.5-2.49,4.89-1.63,10.79,1.87,14.94.79.95,3.04,2.63,3.04,2.63,0,0-.09,3.29.22,4.89.91,4.62,6.4,6.6,10.65,6.08l.88,51.71c-7.1-.34-10.49,1.45-12.02,6.75-7.01.24-13.94,1.64-20.91,2.24-29.08,2.49-58.3,2.05-87.35-.01-11-11.7-29.31-13.14-40.29-.56-17.66,20.2,3.63,51.2,29.37,41.28,4.94-1.91,8.85-7.2,13.25-7.74,14.6-1.77,30.19-1.26,44.72-1.17,19.07.12,40.17.26,58.96,3.45,4.18.71,2.22,2.03,4.41,4.67,2.55,3.08,6.5,2.72,10.12,2.64,0,0-1.14,49.15-1.72,71.74-1.75,67.47-4.94,135.79-12.46,203.1-3.57,31.9-6.24,62.9-42.42,73.3-41.56,11.96-91.69-12.68-118.1-44.39l-6.48-8.27c-16.35-24.16-29.35-58.24-30.57-84.26-.13-2.77-.24-6.75-.24-6.75l27.05.11c3.63.2,3.88-1.48,2.59-4l-41.89-69.91c-1.38-2.38-2.83-2.8-4.4.04l-40.98,69.8c-1.19,2.35-.57,3.9,2.83,4.2l26.83-.23-.02,2.64v13.29c6.51,119.97,91.12,199.64,200.98,233,17.85,5.42,39.37,8.62,54.03,20.86,3.8,3.18,6.68,7.5,10.52,10.48,1.21.95,1.61,1.04,2.82,0,3.85-2.96,6.7-7.32,10.52-10.49,15.6-12.93,39.78-16.32,58.82-22.3,103.59-32.53,186.64-110.03,195.59-223.06.6-7.6,1-22.84,1-22.84l-.02-2.64,26.83.23c3.4-.3,4.02-1.83,2.83-4.2ZM496.79,231.64c-21.37,0-38.68-17.31-38.68-38.68s17.31-38.67,38.68-38.67,38.68,17.31,38.68,38.67-17.32,38.68-38.68,38.68Z"/>
    <path class="cls-3" d="M523.96,389.03l7.58,180.7s3.51,58.22,5.39,76.02,2.62,52.88,18.75,68.19c0,0,10.7,12.5,31.82,16.51-53.36,8.28-79.27-13.87-79.85-42.94v-298.49h16.31Z"/>
    <polygon class="cls-3" points="457.85 266.37 457.88 270.43 535.73 270.43 535.75 266.37 457.85 266.37"/>
    <polygon class="cls-3" points="468.72 277.34 468.82 284.7 524.74 284.7 524.88 277.34 468.72 277.34"/>
    <path class="cls-3" d="M497,866.08v-32.14c1.04-26.04,73.21-25.4,148.09-58.22,19.09-8.37,43.17-31.1,52.94-41.67,9.77-10.57,16.19-.74,22.21-6.24-42.79,58.24-91.41,79.35-118.44,92.01-27.03,12.65-64.92,19.87-81.33,27.91-16.4,8.04-21.33,19.12-23.47,18.36Z"/>
    <path class="cls-3" d="M736.15,584.01s2.02-10.24-.71-9.04c-4.22,1.53-18.93-.02-26.23.62l-2.41,3.97c-2.86,4.82.92,4.56,2.6,4.56,3.04-.09,26.76-.11,26.76-.11Z"/>
    <path class="cls-3" d="M751.31,508.48c-2.58,23.28,30.79,66.56,24.94,66.17-5.84-.39-13.09-.74-19.93,1.23-6.84,1.97,4.69,12.89-11.3,72.98-12,45.07-21.24,62.63-78.21,116.35-.4,2.64,9.08,10.53,26.27-5.68,72.85-71,70.6-159.17,70.6-159.17l.7-16.21,26.1.11c4.58-.13,4.86-2.17,2.09-6.43l-38.92-66.14c-.56-.99-1.87-2.79-2.33-3.21Z"/>
    <path class="cls-3" d="M496.84,866.08v-32.14c-1.4-34.96-130.98-21.84-223.24-106.14,42.79,58.24,91.41,79.35,118.44,92.01,27.03,12.65,64.92,19.87,81.33,27.91,16.4,8.04,21.33,19.12,23.47,18.36Z"/>
    <path class="cls-3" d="M229.88,585.07s1.98-10.22-.75-9.01c-4.22,1.53-19.02-.01-26.32.63l-2.33,3.96c-2.67,4.24,1.73,4.65,2.63,4.65,3.04-.09,26.77-.23,26.77-.23Z"/>
    <path class="cls-3" d="M244.62,509.93c-2.58,23.28,30.96,66.03,25.12,65.64s-13.09-.74-19.93,1.23c-6.84,1.97.22,61.91,13.29,84.64,13.07,22.72,29.03,49.7,82.07,60.05-77.65-34.3-86.43-122.29-86.43-122.29l-.88-14.13,26.1.11c5.72.49,4.86-2.17,2.09-6.43l-39.72-66.29c-.56-.99-1.24-2.12-1.7-2.53Z"/>
    <polygon class="cls-3" points="469.6 329.05 523.55 329.05 523.96 321.12 469.52 321.12 469.6 329.05"/>
    <polygon class="cls-3" points="469.85 380.59 523.75 380.59 523.96 389.03 469.85 389.03 469.85 380.59"/>
    <path class="cls-3" d="M644.93,357.7s-10.85,4.22-18.7,4.1c-23.26-.34-74.8-2.95-88.96,11.49,18.79-3.19,39.89-3.33,58.96-3.45,14.53-.09,30.12-.6,44.72,1.17,4.39.54,8.3,5.84,13.25,7.74,13.5,5.21,25.78-.85,31.85-10.7-5.59,3.54-30.46,9.66-41.12-10.35Z"/>
    <path class="cls-3" d="M306.54,368.05c6.07,9.85,18.35,15.91,31.85,10.7,4.94-1.91,8.85-7.2,13.25-7.74,14.6-1.77,30.19-1.26,44.72-1.17,19.07.12,40.17.26,58.96,3.45-14.16-14.44-65.69-11.83-88.96-11.49-7.84.12-18.7-4.1-18.7-4.1-10.66,20.01-35.53,13.89-41.12,10.35Z"/>
    <polygon class="cls-3" points="540.87 249.23 452.73 249.23 455.61 243.3 520.11 243.83 537.82 243.99 538.12 243.99 540.87 249.23"/>
    <path class="cls-3" d="M562.01,193.23c0,20.5-9.43,38.78-24.19,50.76l-17.72-.15c19.62-11.62,32.77-33,32.77-57.46,0-18.48-7.51-35.21-19.66-47.3,17.37,11.74,28.79,31.62,28.79,54.16Z"/>
    <path class="cls-3" d="M537.27,189.02c0-24.11-19.56-43.66-43.68-43.66s-43.68,19.55-43.68,43.66,19.55,43.68,43.68,43.68c7.77,0,15.06-2.03,21.38-5.59-5.42,2.89-11.61,4.53-18.18,4.53-21.36,0-38.68-17.31-38.68-38.68s17.32-38.67,38.68-38.67,38.69,17.31,38.69,38.67c0,9.34-3.31,17.91-8.84,24.61,6.63-7.65,10.63-17.63,10.63-28.55Z"/>
  </g>
</svg>
  <path d="M701.13 270.03Q721.29 270.03 721.29 253.90Q721.29 245.50 712.39 241.47Q707.68 239.12 700.21 237.10Q692.73 235.09 687.78 232.99Q682.82 230.89 677.78 227.19Q667.87 219.80 667.87 204.43Q667.87 189.05 678.54 180.23Q689.20 171.41 706.42 171.41Q723.64 171.41 738.43 178.30L738.43 203.50L721.29 204.68L721.29 194.93Q721.29 192.41 720.62 191.24Q718.77 188.05 708.78 188.05Q698.78 188.05 693.99 191.57Q689.20 195.10 689.20 202.49Q689.20 207.87 693.24 211.90Q695.92 214.59 701.22 216.35Q706.51 218.12 712.47 219.97Q718.44 221.81 723.06 224Q727.68 226.18 732.72 230.05Q742.97 237.61 742.97 253.40Q742.97 269.19 731.63 278.26Q720.28 287.33 701.72 287.33Q683.16 287.33 668.37 280.45L668.37 253.90L685.51 252.73L685.51 262.97Q685.51 265.49 686.18 266.67Q686.85 267.85 690.30 268.94Q693.74 270.03 701.13 270.03M764.13 266.33L764.13 184.52Q764.13 181.83 763.21 180.82Q762.28 179.81 759.93 179.65L754.05 179.31L754.05 165.37L783.96 165.37L783.96 210.56Q792.69 198.13 808.49 198.13Q821.25 198.13 828.23 205.43Q835.20 212.74 835.20 227.36L835.20 271.21L844.77 271.71L844.77 285.15L804.79 285.15L804.79 272.38L810.33 271.88Q812.85 271.54 814.03 270.45Q815.21 269.36 815.21 266.33L815.21 231.73Q815.21 222.99 812.43 218.29Q809.66 213.58 801.68 213.58Q793.70 213.58 788.91 218.54Q784.13 223.49 784.13 230.55L784.13 271.21L793.70 271.71L793.70 285.15L753.72 285.15L753.72 272.38L759.26 271.88Q761.78 271.54 762.96 270.45Q764.13 269.36 764.13 266.33M855.02 200.65L885.09 200.65L885.09 271.21L894.67 271.71L894.67 285.15L854.69 285.15L854.69 272.38L860.23 271.88Q865.10 271.37 865.10 266.50L865.10 219.80Q865.10 216.94 864.18 215.93Q863.25 214.93 860.90 214.93L855.02 214.59L855.02 200.65M863.93 186.11Q860.40 182.67 860.40 177.29Q860.40 171.92 863.93 168.31Q867.45 164.69 873.17 164.69Q878.88 164.69 882.49 168.31Q886.10 171.92 886.10 177.29Q886.10 182.67 882.49 186.11Q878.88 189.56 873.17 189.56Q867.45 189.56 863.93 186.11M913.82 301.11L913.82 219.80Q913.82 216.94 912.90 215.85Q911.97 214.76 909.62 214.76L902.57 214.25L902.57 200.65L930.96 200.65L930.96 211.57Q933.64 206.53 940.70 202.33Q947.76 198.13 957.50 198.13Q987.91 198.13 987.91 240.80Q987.91 263.48 978 275.57Q968.09 287.67 951.12 287.67Q941.04 287.67 933.14 282.80L933.14 305.98L946.75 306.65L946.75 319.93L903.40 319.93L903.40 307.16L908.95 306.65Q911.47 306.32 912.64 305.23Q913.82 304.13 913.82 301.11M967.08 242.48Q967.08 214.42 950.11 214.42Q943.05 214.42 938.10 218.71Q933.14 222.99 933.14 228.87L933.14 267.51Q939.53 271.71 948.68 271.71Q957.84 271.71 962.46 263.31Q967.08 254.91 967.08 242.48M1079.47 251.89L1079.47 285.15L999.67 285.15L999.67 271.54L1005.21 271.04Q1010.09 270.53 1010.09 266.33L1010.09 188.21L1000.51 187.71L1000.51 173.43L1041 173.43L1041 187.04L1035.45 187.54Q1030.58 188.05 1030.58 192.92L1030.58 267.85L1058.47 267.85Q1060.82 267.85 1061.58 266.59Q1062.33 265.33 1062.33 262.47L1062.33 250.71L1079.47 251.89M1128.69 272.89Q1147.01 272.89 1147.01 243.32Q1147.01 228.37 1142.89 220.64Q1138.77 212.91 1129.11 212.91Q1119.45 212.91 1114.92 220.30Q1110.38 227.69 1110.38 240.46Q1110.38 264.15 1119.12 270.20Q1122.98 272.89 1128.69 272.89M1090.05 242.81Q1090.05 230.38 1093.75 221.23Q1097.44 212.07 1103.66 207.20Q1115.59 198.13 1130.04 198.13Q1140.12 198.13 1147.09 201.40Q1154.06 204.68 1158.01 208.96Q1161.96 213.25 1164.73 221.39Q1167.50 229.54 1167.50 240.63Q1167.50 263.81 1156.25 275.74Q1144.99 287.67 1127.43 287.67Q1109.88 287.67 1099.96 276.33Q1090.05 264.99 1090.05 242.81M1253.52 284.98Q1252 303.63 1242.76 312.37Q1233.52 321.10 1213.87 321.10Q1194.21 321.10 1183.13 315.56L1183.13 292.21L1199.09 290.86L1199.09 298.93Q1199.09 303.46 1203.28 305.06Q1207.48 306.65 1214.88 306.65Q1225.63 306.65 1230 300.19Q1234.37 293.72 1234.37 281.96L1234.37 272.72Q1226.30 282.13 1212.02 282.13Q1203.28 282.13 1196.65 278.77Q1190.01 275.41 1186.32 269.69Q1179.09 258.27 1179.09 242.81Q1179.09 220.81 1191.02 209.47Q1202.95 198.13 1222.77 198.13Q1239.24 198.13 1253.85 204.34L1253.85 266.67Q1253.85 280.95 1253.52 284.98M1234.37 250.88L1234.37 214.76Q1228.48 212.74 1220.92 212.74Q1210.68 212.74 1205.22 220.30Q1199.76 227.86 1199.76 240.80Q1199.76 267.34 1217.23 267.34Q1224.45 267.34 1229.41 262.89Q1234.37 258.44 1234.37 250.88" fill="#242626"/>
  <path d="M668.92 379.53L673.40 379.53Q675.25 379.53 676.67 379.08Q678.09 378.63 679.05 377.80Q680 376.98 680.49 375.83Q680.97 374.69 680.97 373.30Q680.97 370.49 679.13 369.06Q677.28 367.63 673.58 367.63L668.92 367.63L668.92 379.53M678.77 383.27L687.97 395.79L684.18 395.79Q683.02 395.79 682.47 394.88L674.28 383.62Q673.91 383.09 673.48 382.86Q673.05 382.63 672.15 382.63L668.92 382.63L668.92 395.79L664.67 395.79L664.67 364.26L673.58 364.26Q676.57 364.26 678.75 364.87Q680.93 365.47 682.35 366.61Q683.77 367.76 684.45 369.38Q685.13 370.99 685.13 372.99Q685.13 374.67 684.60 376.12Q684.07 377.57 683.07 378.73Q682.07 379.88 680.63 380.69Q679.19 381.51 677.37 381.93Q678.18 382.39 678.77 383.27M694.04 382.21L706.23 382.21Q706.23 380.85 705.84 379.72Q705.46 378.58 704.72 377.76Q703.99 376.93 702.93 376.48Q701.87 376.03 700.53 376.03Q697.72 376.03 696.08 377.67Q694.44 379.31 694.04 382.21M708.30 391.23L709.40 392.66Q708.67 393.54 707.66 394.19Q706.65 394.84 705.49 395.26Q704.34 395.68 703.11 395.88Q701.87 396.09 700.66 396.09Q698.35 396.09 696.41 395.31Q694.46 394.53 693.04 393.02Q691.62 391.52 690.83 389.30Q690.04 387.07 690.04 384.19Q690.04 381.86 690.75 379.84Q691.47 377.81 692.81 376.33Q694.15 374.84 696.09 374Q698.02 373.15 700.44 373.15Q702.45 373.15 704.15 373.82Q705.86 374.49 707.10 375.75Q708.34 377.02 709.04 378.88Q709.75 380.74 709.75 383.11Q709.75 384.04 709.55 384.35Q709.35 384.65 708.80 384.65L693.91 384.65Q693.98 386.77 694.49 388.33Q695.01 389.89 695.93 390.94Q696.86 391.98 698.13 392.50Q699.41 393.01 700.99 393.01Q702.47 393.01 703.53 392.67Q704.60 392.33 705.37 391.94Q706.14 391.54 706.66 391.20Q707.17 390.86 707.55 390.86Q708.03 390.86 708.30 391.23M726.62 390.37L726.62 385.75Q723.92 385.84 722.01 386.18Q720.11 386.52 718.91 387.07Q717.71 387.62 717.17 388.37Q716.63 389.12 716.63 390.04Q716.63 390.92 716.92 391.56Q717.21 392.20 717.70 392.61Q718.20 393.01 718.87 393.20Q719.54 393.39 720.31 393.39Q721.34 393.39 722.20 393.18Q723.06 392.97 723.82 392.57Q724.58 392.18 725.27 391.63Q725.96 391.08 726.62 390.37M714.68 377.90L713.97 376.65Q715.82 374.86 717.95 373.98Q720.09 373.10 722.68 373.10Q724.55 373.10 726.01 373.72Q727.46 374.34 728.45 375.44Q729.44 376.54 729.94 378.10Q730.45 379.66 730.45 381.53L730.45 395.79L728.71 395.79Q728.14 395.79 727.83 395.60Q727.52 395.41 727.35 394.86L726.91 392.75Q726.03 393.56 725.19 394.19Q724.36 394.82 723.43 395.25Q722.51 395.68 721.46 395.91Q720.42 396.14 719.14 396.14Q717.85 396.14 716.70 395.77Q715.56 395.41 714.71 394.69Q713.86 393.96 713.37 392.85Q712.87 391.74 712.87 390.22Q712.87 388.90 713.60 387.68Q714.32 386.46 715.95 385.51Q717.58 384.57 720.20 383.96Q722.82 383.36 726.62 383.27L726.62 381.53Q726.62 378.93 725.50 377.60Q724.38 376.27 722.22 376.27Q720.77 376.27 719.79 376.63Q718.81 377 718.10 377.45Q717.38 377.90 716.87 378.26Q716.35 378.63 715.84 378.63Q715.45 378.63 715.16 378.42Q714.88 378.21 714.68 377.90M750.93 389.56L750.93 378.80Q749.83 377.33 748.56 376.75Q747.28 376.16 745.70 376.16Q742.60 376.16 740.92 378.38Q739.25 380.61 739.25 384.72Q739.25 386.90 739.63 388.45Q740 390 740.73 391Q741.45 392 742.51 392.46Q743.56 392.93 744.91 392.93Q746.84 392.93 748.28 392.05Q749.72 391.17 750.93 389.56M750.93 363.38L754.85 363.38L754.85 395.79L752.52 395.79Q751.68 395.79 751.46 394.97L751.11 392.27Q749.68 393.98 747.85 395.04Q746.03 396.09 743.63 396.09Q741.72 396.09 740.15 395.36Q738.59 394.62 737.49 393.19Q736.39 391.76 735.80 389.63Q735.20 387.49 735.20 384.72Q735.20 382.26 735.86 380.13Q736.52 378.01 737.75 376.45Q738.99 374.89 740.78 374Q742.57 373.10 744.82 373.10Q746.86 373.10 748.33 373.80Q749.79 374.49 750.93 375.72L750.93 363.38M779.16 396.14Q776.52 396.14 775.10 394.66Q773.68 393.19 773.68 390.42L773.68 376.78L771 376.78Q770.64 376.78 770.40 376.57Q770.16 376.36 770.16 375.92L770.16 374.36L773.81 373.90L774.72 367.01Q774.78 366.68 775.01 366.47Q775.24 366.26 775.62 366.26L777.60 366.26L777.60 373.94L784.04 373.94L784.04 376.78L777.60 376.78L777.60 390.15Q777.60 391.56 778.28 392.24Q778.96 392.93 780.04 392.93Q780.66 392.93 781.11 392.76Q781.56 392.60 781.89 392.40Q782.22 392.20 782.45 392.04Q782.68 391.87 782.86 391.87Q783.16 391.87 783.41 392.24L784.55 394.11Q783.54 395.06 782.11 395.60Q780.68 396.14 779.16 396.14M792.03 363.38L792.03 376.47Q793.46 374.95 795.20 374.05Q796.94 373.15 799.20 373.15Q801.03 373.15 802.42 373.75Q803.82 374.36 804.76 375.47Q805.69 376.58 806.18 378.14Q806.66 379.70 806.66 381.60L806.66 395.79L802.72 395.79L802.72 381.60Q802.72 379.07 801.57 377.67Q800.41 376.27 798.06 376.27Q796.32 376.27 794.81 377.11Q793.31 377.94 792.03 379.37L792.03 395.79L788.09 395.79L788.09 363.38L792.03 363.38M815.37 382.21L827.56 382.21Q827.56 380.85 827.17 379.72Q826.79 378.58 826.05 377.76Q825.32 376.93 824.26 376.48Q823.20 376.03 821.86 376.03Q819.05 376.03 817.41 377.67Q815.77 379.31 815.37 382.21M829.63 391.23L830.73 392.66Q830 393.54 828.99 394.19Q827.98 394.84 826.82 395.26Q825.67 395.68 824.44 395.88Q823.20 396.09 821.99 396.09Q819.68 396.09 817.74 395.31Q815.79 394.53 814.37 393.02Q812.95 391.52 812.16 389.30Q811.37 387.07 811.37 384.19Q811.37 381.86 812.08 379.84Q812.80 377.81 814.14 376.33Q815.48 374.84 817.42 374Q819.35 373.15 821.77 373.15Q823.78 373.15 825.48 373.82Q827.19 374.49 828.43 375.75Q829.67 377.02 830.38 378.88Q831.08 380.74 831.08 383.11Q831.08 384.04 830.88 384.35Q830.68 384.65 830.13 384.65L815.24 384.65Q815.31 386.77 815.82 388.33Q816.34 389.89 817.26 390.94Q818.19 391.98 819.46 392.50Q820.74 393.01 822.32 393.01Q823.80 393.01 824.86 392.67Q825.93 392.33 826.70 391.94Q827.47 391.54 827.99 391.20Q828.51 390.86 828.88 390.86Q829.36 390.86 829.63 391.23M863.68 376.05L862.65 377.46Q862.47 377.70 862.30 377.83Q862.12 377.97 861.81 377.97Q861.48 377.97 861.09 377.69Q860.69 377.42 860.11 377.09Q859.53 376.76 858.68 376.48Q857.83 376.21 856.60 376.21Q854.95 376.21 853.70 376.79Q852.44 377.37 851.59 378.47Q850.75 379.57 850.32 381.13Q849.89 382.70 849.89 384.63Q849.89 386.66 850.35 388.23Q850.81 389.80 851.66 390.87Q852.51 391.94 853.71 392.50Q854.91 393.06 856.40 393.06Q857.83 393.06 858.75 392.72Q859.68 392.38 860.28 391.96Q860.89 391.54 861.30 391.20Q861.70 390.86 862.10 390.86Q862.58 390.86 862.85 391.23L863.95 392.66Q863.22 393.56 862.30 394.20Q861.37 394.84 860.31 395.27Q859.24 395.70 858.07 395.90Q856.91 396.09 855.70 396.09Q853.61 396.09 851.81 395.32Q850.02 394.55 848.70 393.09Q847.38 391.63 846.63 389.49Q845.88 387.36 845.88 384.63Q845.88 382.15 846.58 380.03Q847.27 377.92 848.60 376.39Q849.93 374.86 851.88 374.01Q853.83 373.15 856.36 373.15Q858.71 373.15 860.50 373.91Q862.30 374.67 863.68 376.05M872.09 363.38L872.09 376.47Q873.52 374.95 875.25 374.05Q876.99 373.15 879.26 373.15Q881.09 373.15 882.48 373.75Q883.88 374.36 884.81 375.47Q885.75 376.58 886.23 378.14Q886.72 379.70 886.72 381.60L886.72 395.79L882.78 395.79L882.78 381.60Q882.78 379.07 881.62 377.67Q880.47 376.27 878.12 376.27Q876.38 376.27 874.87 377.11Q873.36 377.94 872.09 379.37L872.09 395.79L868.15 395.79L868.15 363.38L872.09 363.38M904.78 390.37L904.78 385.75Q902.07 385.84 900.17 386.18Q898.27 386.52 897.07 387.07Q895.87 387.62 895.33 388.37Q894.79 389.12 894.79 390.04Q894.79 390.92 895.08 391.56Q895.36 392.20 895.86 392.61Q896.35 393.01 897.02 393.20Q897.70 393.39 898.47 393.39Q899.50 393.39 900.36 393.18Q901.22 392.97 901.97 392.57Q902.73 392.18 903.43 391.63Q904.12 391.08 904.78 390.37M892.83 377.90L892.13 376.65Q893.98 374.86 896.11 373.98Q898.25 373.10 900.84 373.10Q902.71 373.10 904.16 373.72Q905.62 374.34 906.61 375.44Q907.60 376.54 908.10 378.10Q908.61 379.66 908.61 381.53L908.61 395.79L906.87 395.79Q906.30 395.79 905.99 395.60Q905.68 395.41 905.50 394.86L905.07 392.75Q904.19 393.56 903.35 394.19Q902.51 394.82 901.59 395.25Q900.67 395.68 899.62 395.91Q898.58 396.14 897.30 396.14Q896 396.14 894.86 395.77Q893.71 395.41 892.87 394.69Q892.02 393.96 891.52 392.85Q891.03 391.74 891.03 390.22Q891.03 388.90 891.75 387.68Q892.48 386.46 894.11 385.51Q895.74 384.57 898.36 383.96Q900.97 383.36 904.78 383.27L904.78 381.53Q904.78 378.93 903.66 377.60Q902.54 376.27 900.38 376.27Q898.93 376.27 897.95 376.63Q896.97 377 896.25 377.45Q895.54 377.90 895.02 378.26Q894.50 378.63 894 378.63Q893.60 378.63 893.32 378.42Q893.03 378.21 892.83 377.90M917.96 374.31L918.27 376.73Q918.99 375.92 919.81 375.26Q920.62 374.60 921.53 374.13Q922.45 373.65 923.47 373.40Q924.49 373.15 925.68 373.15Q927.51 373.15 928.90 373.75Q930.30 374.36 931.23 375.47Q932.17 376.58 932.65 378.14Q933.14 379.70 933.14 381.60L933.14 395.79L929.20 395.79L929.20 381.60Q929.20 379.07 928.04 377.67Q926.89 376.27 924.54 376.27Q922.80 376.27 921.29 377.11Q919.78 377.94 918.51 379.37L918.51 395.79L914.57 395.79L914.57 373.50L916.92 373.50Q917.76 373.50 917.96 374.31M946.89 384.90Q948.08 384.90 948.98 384.57Q949.88 384.24 950.50 383.64Q951.11 383.05 951.42 382.22Q951.73 381.40 951.73 380.41Q951.73 378.36 950.48 377.15Q949.24 375.94 946.89 375.94Q944.51 375.94 943.27 377.15Q942.03 378.36 942.03 380.41Q942.03 381.40 942.34 382.22Q942.66 383.05 943.28 383.64Q943.90 384.24 944.80 384.57Q945.70 384.90 946.89 384.90M953.95 397Q953.95 396.18 953.49 395.68Q953.03 395.17 952.24 394.88Q951.46 394.60 950.43 394.48Q949.40 394.36 948.24 394.29Q947.09 394.22 945.90 394.16Q944.71 394.09 943.61 393.94Q942.38 394.51 941.60 395.38Q940.82 396.25 940.82 397.41Q940.82 398.16 941.20 398.81Q941.59 399.46 942.38 399.93Q943.17 400.41 944.37 400.68Q945.57 400.96 947.20 400.96Q948.78 400.96 950.03 400.67Q951.29 400.38 952.16 399.86Q953.03 399.33 953.49 398.60Q953.95 397.88 953.95 397M951.88 374.38L957.93 374.38L957.93 375.83Q957.93 376.56 957.01 376.76L954.48 377.09Q955.23 378.54 955.23 380.30Q955.23 381.93 954.60 383.26Q953.97 384.59 952.87 385.53Q951.77 386.48 950.23 386.99Q948.69 387.49 946.89 387.49Q945.33 387.49 943.94 387.12Q943.24 387.56 942.86 388.05Q942.49 388.55 942.49 389.05Q942.49 389.85 943.14 390.25Q943.79 390.66 944.84 390.84Q945.90 391.01 947.25 391.06Q948.60 391.10 950.02 391.20Q951.44 391.30 952.79 391.54Q954.15 391.78 955.20 392.33Q956.26 392.88 956.91 393.85Q957.56 394.82 957.56 396.36Q957.56 397.79 956.84 399.13Q956.13 400.47 954.79 401.52Q953.44 402.56 951.50 403.19Q949.55 403.82 947.11 403.82Q944.67 403.82 942.84 403.33Q941.01 402.85 939.80 402.03Q938.59 401.22 937.99 400.15Q937.38 399.09 937.38 397.92Q937.38 396.27 938.42 395.13Q939.45 393.98 941.26 393.30Q940.27 392.86 939.68 392.12Q939.10 391.39 939.10 390.13Q939.10 389.65 939.28 389.13Q939.45 388.61 939.81 388.10Q940.18 387.58 940.71 387.12Q941.23 386.66 941.94 386.30Q940.29 385.38 939.36 383.85Q938.44 382.32 938.44 380.30Q938.44 378.67 939.07 377.34Q939.69 376.01 940.82 375.07Q941.94 374.14 943.49 373.63Q945.04 373.13 946.89 373.13Q948.34 373.13 949.59 373.44Q950.85 373.76 951.88 374.38M964.73 382.21L976.92 382.21Q976.92 380.85 976.53 379.72Q976.15 378.58 975.41 377.76Q974.67 376.93 973.62 376.48Q972.56 376.03 971.22 376.03Q968.40 376.03 966.76 377.67Q965.13 379.31 964.73 382.21M978.99 391.23L980.09 392.66Q979.36 393.54 978.35 394.19Q977.34 394.84 976.18 395.26Q975.03 395.68 973.79 395.88Q972.56 396.09 971.35 396.09Q969.04 396.09 967.09 395.31Q965.15 394.53 963.73 393.02Q962.31 391.52 961.52 389.30Q960.73 387.07 960.73 384.19Q960.73 381.86 961.44 379.84Q962.16 377.81 963.50 376.33Q964.84 374.84 966.78 374Q968.71 373.15 971.13 373.15Q973.13 373.15 974.84 373.82Q976.54 374.49 977.79 375.75Q979.03 377.02 979.73 378.88Q980.44 380.74 980.44 383.11Q980.44 384.04 980.24 384.35Q980.04 384.65 979.49 384.65L964.60 384.65Q964.66 386.77 965.18 388.33Q965.70 389.89 966.62 390.94Q967.55 391.98 968.82 392.50Q970.10 393.01 971.68 393.01Q973.16 393.01 974.22 392.67Q975.29 392.33 976.06 391.94Q976.83 391.54 977.35 391.20Q977.86 390.86 978.24 390.86Q978.72 390.86 978.99 391.23M985.37 363.38L989.28 363.38L989.28 395.79L985.37 395.79L985.37 363.38M1005.01 373.15Q1007.45 373.15 1009.41 373.96Q1011.37 374.78 1012.76 376.27Q1014.14 377.77 1014.88 379.89Q1015.62 382.01 1015.62 384.63Q1015.62 387.27 1014.88 389.38Q1014.14 391.50 1012.76 392.99Q1011.37 394.49 1009.41 395.29Q1007.45 396.09 1005.01 396.09Q1002.55 396.09 1000.58 395.29Q998.61 394.49 997.22 392.99Q995.84 391.50 995.10 389.38Q994.36 387.27 994.36 384.63Q994.36 382.01 995.10 379.89Q995.84 377.77 997.22 376.27Q998.61 374.78 1000.58 373.96Q1002.55 373.15 1005.01 373.15M1005.01 393.04Q1008.31 393.04 1009.94 390.82Q1011.57 388.61 1011.57 384.65Q1011.57 380.67 1009.94 378.45Q1008.31 376.23 1005.01 376.23Q1003.34 376.23 1002.10 376.80Q1000.85 377.37 1000.03 378.45Q999.20 379.53 998.80 381.10Q998.39 382.67 998.39 384.65Q998.39 388.61 1000.03 390.82Q1001.67 393.04 1005.01 393.04M1028.33 384.90Q1029.52 384.90 1030.42 384.57Q1031.32 384.24 1031.94 383.64Q1032.56 383.05 1032.86 382.22Q1033.17 381.40 1033.17 380.41Q1033.17 378.36 1031.93 377.15Q1030.69 375.94 1028.33 375.94Q1025.96 375.94 1024.71 377.15Q1023.47 378.36 1023.47 380.41Q1023.47 381.40 1023.79 382.22Q1024.11 383.05 1024.72 383.64Q1025.34 384.24 1026.24 384.57Q1027.14 384.90 1028.33 384.90M1035.39 397Q1035.39 396.18 1034.93 395.68Q1034.47 395.17 1033.69 394.88Q1032.91 394.60 1031.87 394.48Q1030.84 394.36 1029.68 394.29Q1028.53 394.22 1027.34 394.16Q1026.15 394.09 1025.05 393.94Q1023.82 394.51 1023.04 395.38Q1022.26 396.25 1022.26 397.41Q1022.26 398.16 1022.64 398.81Q1023.03 399.46 1023.82 399.93Q1024.61 400.41 1025.81 400.68Q1027.01 400.96 1028.64 400.96Q1030.22 400.96 1031.48 400.67Q1032.73 400.38 1033.60 399.86Q1034.47 399.33 1034.93 398.60Q1035.39 397.88 1035.39 397M1033.33 374.38L1039.38 374.38L1039.38 375.83Q1039.38 376.56 1038.45 376.76L1035.92 377.09Q1036.67 378.54 1036.67 380.30Q1036.67 381.93 1036.04 383.26Q1035.41 384.59 1034.32 385.53Q1033.22 386.48 1031.68 386.99Q1030.13 387.49 1028.33 387.49Q1026.77 387.49 1025.38 387.12Q1024.68 387.56 1024.31 388.05Q1023.93 388.55 1023.93 389.05Q1023.93 389.85 1024.58 390.25Q1025.23 390.66 1026.29 390.84Q1027.34 391.01 1028.69 391.06Q1030.05 391.10 1031.47 391.20Q1032.88 391.30 1034.24 391.54Q1035.59 391.78 1036.65 392.33Q1037.70 392.88 1038.35 393.85Q1039 394.82 1039 396.36Q1039 397.79 1038.29 399.13Q1037.57 400.47 1036.23 401.52Q1034.89 402.56 1032.94 403.19Q1030.99 403.82 1028.55 403.82Q1026.11 403.82 1024.28 403.33Q1022.46 402.85 1021.25 402.03Q1020.04 401.22 1019.43 400.15Q1018.83 399.09 1018.83 397.92Q1018.83 396.27 1019.86 395.13Q1020.90 393.98 1022.70 393.30Q1021.71 392.86 1021.13 392.12Q1020.54 391.39 1020.54 390.13Q1020.54 389.65 1020.72 389.13Q1020.90 388.61 1021.26 388.10Q1021.62 387.58 1022.15 387.12Q1022.68 386.66 1023.38 386.30Q1021.73 385.38 1020.81 383.85Q1019.88 382.32 1019.88 380.30Q1019.88 378.67 1020.51 377.34Q1021.14 376.01 1022.26 375.07Q1023.38 374.14 1024.93 373.63Q1026.48 373.13 1028.33 373.13Q1029.78 373.13 1031.04 373.44Q1032.29 373.76 1033.33 374.38M1058.65 379.64L1058.65 390.42Q1059.72 391.87 1061.01 392.46Q1062.30 393.06 1063.84 393.06Q1066.98 393.06 1068.66 390.84Q1070.33 388.61 1070.33 384.21Q1070.33 380.12 1068.84 378.20Q1067.36 376.27 1064.61 376.27Q1062.69 376.27 1061.28 377.15Q1059.86 378.03 1058.65 379.64M1058.65 363.38L1058.65 376.71Q1060.06 375.08 1061.83 374.12Q1063.60 373.15 1065.91 373.15Q1067.87 373.15 1069.44 373.90Q1071.01 374.64 1072.11 376.06Q1073.21 377.48 1073.79 379.51Q1074.38 381.53 1074.38 384.06Q1074.38 386.77 1073.72 388.99Q1073.06 391.21 1071.81 392.78Q1070.57 394.36 1068.79 395.23Q1067.01 396.09 1064.79 396.09Q1062.59 396.09 1061.08 395.27Q1059.57 394.44 1058.45 392.93L1058.25 394.95Q1058.08 395.79 1057.24 395.79L1054.71 395.79L1054.71 363.38L1058.65 363.38M1082.08 382.21L1094.27 382.21Q1094.27 380.85 1093.88 379.72Q1093.50 378.58 1092.76 377.76Q1092.02 376.93 1090.97 376.48Q1089.91 376.03 1088.57 376.03Q1085.75 376.03 1084.11 377.67Q1082.47 379.31 1082.08 382.21M1096.33 391.23L1097.43 392.66Q1096.71 393.54 1095.70 394.19Q1094.68 394.84 1093.53 395.26Q1092.37 395.68 1091.14 395.88Q1089.91 396.09 1088.70 396.09Q1086.39 396.09 1084.44 395.31Q1082.50 394.53 1081.08 393.02Q1079.66 391.52 1078.87 389.30Q1078.07 387.07 1078.07 384.19Q1078.07 381.86 1078.79 379.84Q1079.50 377.81 1080.85 376.33Q1082.19 374.84 1084.12 374Q1086.06 373.15 1088.48 373.15Q1090.48 373.15 1092.19 373.82Q1093.89 374.49 1095.13 375.75Q1096.38 377.02 1097.08 378.88Q1097.79 380.74 1097.79 383.11Q1097.79 384.04 1097.59 384.35Q1097.39 384.65 1096.84 384.65L1081.95 384.65Q1082.01 386.77 1082.53 388.33Q1083.05 389.89 1083.97 390.94Q1084.89 391.98 1086.17 392.50Q1087.45 393.01 1089.03 393.01Q1090.50 393.01 1091.57 392.67Q1092.64 392.33 1093.41 391.94Q1094.18 391.54 1094.69 391.20Q1095.21 390.86 1095.59 390.86Q1096.07 390.86 1096.33 391.23M1107.97 395.79L1104.03 395.79L1104.03 376.84L1101.57 376.56Q1101.11 376.45 1100.81 376.22Q1100.51 375.99 1100.51 375.55L1100.51 373.94L1104.03 373.94L1104.03 371.78Q1104.03 369.87 1104.57 368.38Q1105.11 366.90 1106.11 365.88Q1107.11 364.85 1108.52 364.33Q1109.93 363.80 1111.69 363.80Q1113.18 363.80 1114.44 364.24L1114.35 366.20Q1114.31 366.72 1113.77 366.77Q1113.23 366.81 1112.33 366.81Q1111.32 366.81 1110.49 367.08Q1109.66 367.34 1109.07 367.93Q1108.48 368.53 1108.16 369.50Q1107.84 370.46 1107.84 371.89L1107.84 373.94L1114.26 373.94L1114.26 376.78L1107.97 376.78L1107.97 395.79M1127.40 373.15Q1129.84 373.15 1131.80 373.96Q1133.76 374.78 1135.14 376.27Q1136.53 377.77 1137.26 379.89Q1138 382.01 1138 384.63Q1138 387.27 1137.26 389.38Q1136.53 391.50 1135.14 392.99Q1133.76 394.49 1131.80 395.29Q1129.84 396.09 1127.40 396.09Q1124.93 396.09 1122.96 395.29Q1121 394.49 1119.61 392.99Q1118.22 391.50 1117.49 389.38Q1116.75 387.27 1116.75 384.63Q1116.75 382.01 1117.49 379.89Q1118.22 377.77 1119.61 376.27Q1121 374.78 1122.96 373.96Q1124.93 373.15 1127.40 373.15M1127.40 393.04Q1130.70 393.04 1132.33 390.82Q1133.95 388.61 1133.95 384.65Q1133.95 380.67 1132.33 378.45Q1130.70 376.23 1127.40 376.23Q1125.73 376.23 1124.48 376.80Q1123.24 377.37 1122.41 378.45Q1121.59 379.53 1121.18 381.10Q1120.78 382.67 1120.78 384.65Q1120.78 388.61 1122.41 390.82Q1124.05 393.04 1127.40 393.04M1146.41 374.58L1146.67 377.97Q1147.73 375.68 1149.27 374.39Q1150.81 373.10 1153.03 373.10Q1153.73 373.10 1154.38 373.26Q1155.03 373.41 1155.54 373.74L1155.25 376.67Q1155.12 377.22 1154.59 377.22Q1154.28 377.22 1153.69 377.09Q1153.09 376.95 1152.35 376.95Q1151.29 376.95 1150.46 377.26Q1149.64 377.57 1148.99 378.18Q1148.34 378.78 1147.82 379.67Q1147.31 380.56 1146.89 381.71L1146.89 395.79L1142.95 395.79L1142.95 373.50L1145.20 373.50Q1145.83 373.50 1146.08 373.74Q1146.32 373.98 1146.41 374.58M1161.70 382.21L1173.88 382.21Q1173.88 380.85 1173.50 379.72Q1173.11 378.58 1172.38 377.76Q1171.64 376.93 1170.58 376.48Q1169.53 376.03 1168.19 376.03Q1165.37 376.03 1163.73 377.67Q1162.09 379.31 1161.70 382.21M1175.95 391.23L1177.05 392.66Q1176.33 393.54 1175.31 394.19Q1174.30 394.84 1173.15 395.26Q1171.99 395.68 1170.76 395.88Q1169.53 396.09 1168.32 396.09Q1166.01 396.09 1164.06 395.31Q1162.11 394.53 1160.69 393.02Q1159.28 391.52 1158.48 389.30Q1157.69 387.07 1157.69 384.19Q1157.69 381.86 1158.41 379.84Q1159.12 377.81 1160.46 376.33Q1161.81 374.84 1163.74 374Q1165.68 373.15 1168.10 373.15Q1170.10 373.15 1171.80 373.82Q1173.51 374.49 1174.75 375.75Q1176 377.02 1176.70 378.88Q1177.40 380.74 1177.40 383.11Q1177.40 384.04 1177.21 384.35Q1177.01 384.65 1176.46 384.65L1161.56 384.65Q1161.63 386.77 1162.15 388.33Q1162.66 389.89 1163.59 390.94Q1164.51 391.98 1165.79 392.50Q1167.06 393.01 1168.65 393.01Q1170.12 393.01 1171.19 392.67Q1172.26 392.33 1173.03 391.94Q1173.80 391.54 1174.31 391.20Q1174.83 390.86 1175.20 390.86Q1175.69 390.86 1175.95 391.23M1209.59 373.50L1212.69 373.50L1200.26 402.36Q1200.06 402.80 1199.77 403.07Q1199.47 403.33 1198.85 403.33L1195.95 403.33L1200.02 394.49L1190.82 373.50L1194.21 373.50Q1194.72 373.50 1195.01 373.75Q1195.31 374.01 1195.42 374.31L1201.38 388.35Q1201.74 389.27 1201.98 390.29Q1202.29 389.25 1202.64 388.33L1208.42 374.31Q1208.56 373.96 1208.87 373.73Q1209.19 373.50 1209.59 373.50M1225.54 373.15Q1227.98 373.15 1229.94 373.96Q1231.90 374.78 1233.28 376.27Q1234.67 377.77 1235.41 379.89Q1236.14 382.01 1236.14 384.63Q1236.14 387.27 1235.41 389.38Q1234.67 391.50 1233.28 392.99Q1231.90 394.49 1229.94 395.29Q1227.98 396.09 1225.54 396.09Q1223.08 396.09 1221.11 395.29Q1219.14 394.49 1217.75 392.99Q1216.37 391.50 1215.63 389.38Q1214.89 387.27 1214.89 384.63Q1214.89 382.01 1215.63 379.89Q1216.37 377.77 1217.75 376.27Q1219.14 374.78 1221.11 373.96Q1223.08 373.15 1225.54 373.15M1225.54 393.04Q1228.84 393.04 1230.47 390.82Q1232.10 388.61 1232.10 384.65Q1232.10 380.67 1230.47 378.45Q1228.84 376.23 1225.54 376.23Q1223.87 376.23 1222.62 376.80Q1221.38 377.37 1220.56 378.45Q1219.73 379.53 1219.32 381.10Q1218.92 382.67 1218.92 384.65Q1218.92 388.61 1220.56 390.82Q1222.20 393.04 1225.54 393.04M1255.50 373.50L1259.42 373.50L1259.42 395.79L1257.09 395.79Q1256.25 395.79 1256.03 394.97L1255.72 392.57Q1254.27 394.18 1252.47 395.16Q1250.66 396.14 1248.33 396.14Q1246.51 396.14 1245.11 395.53Q1243.71 394.93 1242.77 393.83Q1241.82 392.73 1241.35 391.17Q1240.87 389.60 1240.87 387.71L1240.87 373.50L1244.79 373.50L1244.79 387.71Q1244.79 390.24 1245.94 391.63Q1247.10 393.01 1249.48 393.01Q1251.21 393.01 1252.72 392.19Q1254.23 391.36 1255.50 389.91L1255.50 373.50M1290.75 375.74L1289.87 377.17Q1289.60 377.66 1289.05 377.66Q1288.72 377.66 1288.31 377.42Q1287.89 377.17 1287.28 376.88Q1286.68 376.58 1285.84 376.33Q1285.01 376.07 1283.86 376.07Q1282.87 376.07 1282.08 376.33Q1281.29 376.58 1280.73 377.02Q1280.17 377.46 1279.87 378.04Q1279.57 378.63 1279.57 379.31Q1279.57 380.17 1280.07 380.74Q1280.56 381.31 1281.38 381.73Q1282.19 382.15 1283.22 382.46Q1284.26 382.78 1285.35 383.15Q1286.44 383.51 1287.47 383.95Q1288.50 384.39 1289.32 385.05Q1290.13 385.71 1290.63 386.67Q1291.12 387.62 1291.12 388.97Q1291.12 390.51 1290.57 391.81Q1290.02 393.12 1288.94 394.08Q1287.87 395.04 1286.30 395.59Q1284.74 396.14 1282.70 396.14Q1280.36 396.14 1278.47 395.38Q1276.58 394.62 1275.26 393.43L1276.18 391.94Q1276.36 391.65 1276.60 391.50Q1276.84 391.34 1277.22 391.34Q1277.61 391.34 1278.05 391.65Q1278.49 391.96 1279.12 392.33Q1279.75 392.71 1280.65 393.01Q1281.55 393.32 1282.89 393.32Q1284.04 393.32 1284.89 393.02Q1285.75 392.73 1286.33 392.22Q1286.90 391.72 1287.17 391.06Q1287.45 390.40 1287.45 389.65Q1287.45 388.72 1286.95 388.12Q1286.46 387.51 1285.64 387.08Q1284.83 386.66 1283.78 386.34Q1282.74 386.02 1281.65 385.67Q1280.56 385.31 1279.52 384.86Q1278.47 384.41 1277.66 383.73Q1276.84 383.05 1276.35 382.05Q1275.85 381.05 1275.85 379.62Q1275.85 378.34 1276.38 377.16Q1276.91 375.99 1277.92 375.10Q1278.93 374.20 1280.41 373.68Q1281.88 373.15 1283.77 373.15Q1285.97 373.15 1287.72 373.84Q1289.47 374.53 1290.75 375.74M1298.67 382.21L1310.86 382.21Q1310.86 380.85 1310.47 379.72Q1310.09 378.58 1309.35 377.76Q1308.61 376.93 1307.56 376.48Q1306.50 376.03 1305.16 376.03Q1302.34 376.03 1300.70 377.67Q1299.06 379.31 1298.67 382.21M1312.92 391.23L1314.02 392.66Q1313.30 393.54 1312.29 394.19Q1311.27 394.84 1310.12 395.26Q1308.96 395.68 1307.73 395.88Q1306.50 396.09 1305.29 396.09Q1302.98 396.09 1301.03 395.31Q1299.09 394.53 1297.67 393.02Q1296.25 391.52 1295.45 389.30Q1294.66 387.07 1294.66 384.19Q1294.66 381.86 1295.38 379.84Q1296.09 377.81 1297.43 376.33Q1298.78 374.84 1300.71 374Q1302.65 373.15 1305.07 373.15Q1307.07 373.15 1308.78 373.82Q1310.48 374.49 1311.72 375.75Q1312.97 377.02 1313.67 378.88Q1314.38 380.74 1314.38 383.11Q1314.38 384.04 1314.18 384.35Q1313.98 384.65 1313.43 384.65L1298.54 384.65Q1298.60 386.77 1299.12 388.33Q1299.63 389.89 1300.56 390.94Q1301.48 391.98 1302.76 392.50Q1304.04 393.01 1305.62 393.01Q1307.09 393.01 1308.16 392.67Q1309.23 392.33 1310 391.94Q1310.77 391.54 1311.28 391.20Q1311.80 390.86 1312.17 390.86Q1312.66 390.86 1312.92 391.23M1326.01 396.14Q1323.37 396.14 1321.95 394.66Q1320.53 393.19 1320.53 390.42L1320.53 376.78L1317.85 376.78Q1317.50 376.78 1317.26 376.57Q1317.01 376.36 1317.01 375.92L1317.01 374.36L1320.67 373.90L1321.57 367.01Q1321.63 366.68 1321.87 366.47Q1322.10 366.26 1322.47 366.26L1324.45 366.26L1324.45 373.94L1330.90 373.94L1330.90 376.78L1324.45 376.78L1324.45 390.15Q1324.45 391.56 1325.13 392.24Q1325.82 392.93 1326.89 392.93Q1327.51 392.93 1327.96 392.76Q1328.41 392.60 1328.74 392.40Q1329.07 392.20 1329.30 392.04Q1329.53 391.87 1329.71 391.87Q1330.02 391.87 1330.26 392.24L1331.40 394.11Q1330.39 395.06 1328.96 395.60Q1327.53 396.14 1326.01 396.14M1360.07 375.74L1359.19 377.17Q1358.92 377.66 1358.37 377.66Q1358.04 377.66 1357.63 377.42Q1357.21 377.17 1356.60 376.88Q1356 376.58 1355.16 376.33Q1354.33 376.07 1353.18 376.07Q1352.19 376.07 1351.40 376.33Q1350.61 376.58 1350.05 377.02Q1349.49 377.46 1349.19 378.04Q1348.89 378.63 1348.89 379.31Q1348.89 380.17 1349.39 380.74Q1349.88 381.31 1350.70 381.73Q1351.51 382.15 1352.54 382.46Q1353.58 382.78 1354.67 383.15Q1355.76 383.51 1356.79 383.95Q1357.82 384.39 1358.64 385.05Q1359.45 385.71 1359.95 386.67Q1360.44 387.62 1360.44 388.97Q1360.44 390.51 1359.89 391.81Q1359.34 393.12 1358.26 394.08Q1357.19 395.04 1355.62 395.59Q1354.06 396.14 1352.02 396.14Q1349.68 396.14 1347.79 395.38Q1345.90 394.62 1344.58 393.43L1345.50 391.94Q1345.68 391.65 1345.92 391.50Q1346.16 391.34 1346.54 391.34Q1346.93 391.34 1347.37 391.65Q1347.81 391.96 1348.44 392.33Q1349.07 392.71 1349.97 393.01Q1350.87 393.32 1352.21 393.32Q1353.36 393.32 1354.22 393.02Q1355.07 392.73 1355.65 392.22Q1356.22 391.72 1356.49 391.06Q1356.77 390.40 1356.77 389.65Q1356.77 388.72 1356.27 388.12Q1355.78 387.51 1354.96 387.08Q1354.15 386.66 1353.11 386.34Q1352.06 386.02 1350.97 385.67Q1349.88 385.31 1348.84 384.86Q1347.79 384.41 1346.98 383.73Q1346.16 383.05 1345.67 382.05Q1345.17 381.05 1345.17 379.62Q1345.17 378.34 1345.70 377.16Q1346.23 375.99 1347.24 375.10Q1348.25 374.20 1349.73 373.68Q1351.20 373.15 1353.09 373.15Q1355.29 373.15 1357.04 373.84Q1358.79 374.53 1360.07 375.74M1377.34 390.37L1377.34 385.75Q1374.63 385.84 1372.73 386.18Q1370.83 386.52 1369.63 387.07Q1368.43 387.62 1367.89 388.37Q1367.35 389.12 1367.35 390.04Q1367.35 390.92 1367.64 391.56Q1367.92 392.20 1368.42 392.61Q1368.91 393.01 1369.58 393.20Q1370.25 393.39 1371.02 393.39Q1372.06 393.39 1372.92 393.18Q1373.77 392.97 1374.53 392.57Q1375.29 392.18 1375.99 391.63Q1376.68 391.08 1377.34 390.37M1365.39 377.90L1364.69 376.65Q1366.54 374.86 1368.67 373.98Q1370.80 373.10 1373.40 373.10Q1375.27 373.10 1376.72 373.72Q1378.17 374.34 1379.16 375.44Q1380.15 376.54 1380.66 378.10Q1381.17 379.66 1381.17 381.53L1381.17 395.79L1379.43 395.79Q1378.86 395.79 1378.55 395.60Q1378.24 395.41 1378.06 394.86L1377.62 392.75Q1376.74 393.56 1375.91 394.19Q1375.07 394.82 1374.15 395.25Q1373.22 395.68 1372.18 395.91Q1371.13 396.14 1369.86 396.14Q1368.56 396.14 1367.42 395.77Q1366.27 395.41 1365.43 394.69Q1364.58 393.96 1364.08 392.85Q1363.59 391.74 1363.59 390.22Q1363.59 388.90 1364.31 387.68Q1365.04 386.46 1366.67 385.51Q1368.30 384.57 1370.91 383.96Q1373.53 383.36 1377.34 383.27L1377.34 381.53Q1377.34 378.93 1376.22 377.60Q1375.09 376.27 1372.94 376.27Q1371.49 376.27 1370.51 376.63Q1369.53 377 1368.81 377.45Q1368.10 377.90 1367.58 378.26Q1367.06 378.63 1366.56 378.63Q1366.16 378.63 1365.88 378.42Q1365.59 378.21 1365.39 377.90M1387.35 373.50L1391.26 373.50L1391.26 395.79L1387.35 395.79L1387.35 373.50M1392.10 366.50Q1392.10 367.08 1391.87 367.57Q1391.64 368.07 1391.25 368.45Q1390.87 368.84 1390.35 369.06Q1389.83 369.28 1389.26 369.28Q1388.69 369.28 1388.20 369.06Q1387.70 368.84 1387.33 368.45Q1386.95 368.07 1386.73 367.57Q1386.51 367.08 1386.51 366.50Q1386.51 365.93 1386.73 365.42Q1386.95 364.90 1387.33 364.51Q1387.70 364.13 1388.20 363.91Q1388.69 363.69 1389.26 363.69Q1389.83 363.69 1390.35 363.91Q1390.87 364.13 1391.25 364.51Q1391.64 364.90 1391.87 365.42Q1392.10 365.93 1392.10 366.50M1397.82 363.38L1401.74 363.38L1401.74 395.79L1397.82 395.79L1397.82 363.38M1407.41 393.37Q1407.41 392.79 1407.62 392.29Q1407.83 391.78 1408.19 391.41Q1408.56 391.03 1409.06 390.81Q1409.57 390.59 1410.14 390.59Q1410.71 390.59 1411.22 390.81Q1411.72 391.03 1412.10 391.41Q1412.47 391.78 1412.69 392.29Q1412.91 392.79 1412.91 393.37Q1412.91 393.96 1412.69 394.45Q1412.47 394.95 1412.10 395.32Q1411.72 395.70 1411.22 395.91Q1410.71 396.12 1410.14 396.12Q1409.57 396.12 1409.06 395.91Q1408.56 395.70 1408.19 395.32Q1407.83 394.95 1407.62 394.45Q1407.41 393.96 1407.41 393.37" fill="#5a5d5e"/>
</svg>
