<svg xmlns="http://www.w3.org/2000/svg" width="1600" height="500" viewBox="0 0 1600 500">
  <rect width="1600" height="500" fill="#0d1117"/>
  <svg x="254.5" y="40.0" width="420" height="420" viewBox="0 0 1000 1000" xmlns="http://www.w3.org/2000/svg">
  <defs>
    <style>
      .cls-1 {
        fill: #aeb6bd;
      }

      .cls-2 {
        fill: #e6edf3;
      }
    </style>
  </defs>
  <g id="logo_vII">
    <path class="cls-1" d="M500,50c60.77,0,119.7,11.89,175.15,35.34,53.58,22.66,101.71,55.12,143.05,96.46,41.34,41.34,73.8,89.47,96.46,143.05,23.45,55.45,35.34,114.37,35.34,175.15s-11.89,119.7-35.34,175.14c-22.66,53.58-55.12,101.71-96.46,143.05-41.34,41.34-89.47,73.8-143.05,96.46-55.45,23.45-114.37,35.34-175.15,35.34s-119.7-11.89-175.14-35.34c-53.58-22.66-101.71-55.12-143.05-96.46-41.34-41.34-73.8-89.47-96.46-143.05-23.45-55.45-35.34-114.37-35.34-175.14s11.89-119.7,35.34-175.15c22.66-53.58,55.12-101.71,96.46-143.05,41.34-41.34,89.47-73.8,143.05-96.46,55.45-23.45,114.37-35.34,175.14-35.34M500,0C223.86,0,0,223.86,0,500s223.86,500,500,500,500-223.86,500-500S776.14,0,500,0h0Z"/>
    <path class="cls-1" d="M845.07,596.56l-47.64-81.16c-1.84-3.31-3.53-2.82-5.13-.05l-48.71,81.29c-1.5,2.95-1.21,4.89,3.01,4.66l31.47-.13s-.14,4.62-.3,7.84c-1.71,36.53-23.38,86.74-47.79,113.8-32.04,35.51-96.09,64.24-142.6,42.98-34.39-15.73-36.1-48.48-39.79-81.59-9.82-88.54-16.49-319.56-16.49-319.56,4.22.09,8.8.51,11.78-3.07,2.55-3.07.27-4.6,5.12-5.43,21.58-3.66,46.01-3.86,67.89-4.02,17.13-.12,35.46-.69,52.66,1.36,4.51.55,6.23,3.67,9.82,6.02,25.05,16.28,55.14-8.23,45.19-35.95-7.54-20.97-36.68-26.05-50.93-9.03l-1.36.62c-41.94,3.38-84.11,2.41-125.9-2.58-1.82-7.32-7.48-7.86-14.49-7.86l1.54-60.12c4.94.6,11.33-1.71,12.39-7.07.37-1.86.25-5.69.25-5.69,0,0,2.61-1.95,3.54-3.06,4.06-4.82,5.07-11.68,2.17-17.37-1.16-2.29-1.45-3.15-2.96-5.87,16.91-13.86,27.56-35.48,27.56-59.05,0-39.49-30.28-71.91-68.9-75.29-.05-.02-.09-.02-.15-.02-2.16-.19-4.35-.28-6.56-.28-2.56,0-5.08.13-7.58.38-38.21,3.79-68.03,36.03-68.03,75.22,0,23.59,10.79,44.66,27.72,58.53-1.54,3.47-1.94,4.12-3.1,6.4-2.89,5.69-1.9,12.55,2.18,17.37.92,1.1,3.53,3.06,3.53,3.06,0,0-.11,3.83.26,5.69,1.05,5.37,7.44,7.68,12.38,7.07l1.02,60.12c-8.26-.39-12.19,1.69-13.98,7.85-8.15.28-16.21,1.91-24.31,2.61-33.81,2.89-67.78,2.38-101.56-.01-12.8-13.6-34.07-15.28-46.85-.65-20.53,23.48,4.22,59.54,34.15,48,5.75-2.22,10.3-8.38,15.4-9,16.98-2.06,35.11-1.47,52-1.36,22.17.14,46.7.31,68.55,4.02,4.86.83,2.58,2.36,5.13,5.43,2.96,3.58,7.56,3.16,11.77,3.07,0,0-1.33,57.14-2,83.41-2.04,78.45-5.75,157.89-14.49,236.15-4.15,37.1-7.25,73.14-49.32,85.23-48.33,13.91-106.61-14.74-137.32-51.61l-7.54-9.62c-19.02-28.09-34.12-67.72-35.54-97.97-.15-3.22-.28-7.84-.28-7.84l31.46.13c4.22.24,4.51-1.72,3.01-4.66l-48.71-81.29c-1.6-2.77-3.29-3.26-5.12.05l-47.65,81.16c-1.39,2.74-.66,4.54,3.29,4.88l31.2-.27-.02,3.07v15.45c7.57,139.5,105.94,232.13,233.69,270.92,20.76,6.3,45.78,10.02,62.82,24.25,4.42,3.7,7.77,8.72,12.23,12.18,1.4,1.1,1.87,1.21,3.28,0,4.48-3.44,7.8-8.51,12.23-12.19,18.14-15.04,46.25-18.98,68.39-25.92,120.45-37.82,217.01-127.93,227.42-259.36.7-8.84,1.16-26.55,1.16-26.55l-.02-3.07,31.2.27c3.96-.34,4.68-2.13,3.29-4.88ZM499.76,191.45c-24.85,0-44.97-20.13-44.97-44.97s20.13-44.96,44.97-44.96,44.97,20.13,44.97,44.96-20.14,44.97-44.97,44.97Z"/>
    <path class="cls-2" d="M531.35,374.45l8.82,210.11s4.08,67.69,6.27,88.39c2.19,20.7,3.05,61.48,21.8,79.29,0,0,12.44,14.53,36.99,19.2-62.04,9.63-92.17-16.12-92.84-49.93v-347.07h18.96Z"/>
    <polygon class="cls-2" points="454.48 231.83 454.51 236.56 545.03 236.56 545.06 231.83 454.48 231.83"/>
    <polygon class="cls-2" points="467.12 244.59 467.23 253.15 532.25 253.15 532.41 244.59 467.12 244.59"/>
    <path class="cls-2" d="M500,929.13v-37.37c1.21-30.28,85.12-29.54,172.19-67.7,22.19-9.73,50.19-36.16,61.55-48.45,11.36-12.29,18.82-.86,25.82-7.26-49.75,67.72-106.28,92.27-137.72,106.98-31.43,14.71-75.49,23.11-94.56,32.45s-24.8,22.23-27.29,21.35Z"/>
    <path class="cls-2" d="M778.07,601.17s2.35-11.91-.82-10.51c-4.91,1.78-22.01-.02-30.5.72l-2.81,4.62c-3.32,5.6,1.07,5.3,3.02,5.3,3.54-.1,31.11-.13,31.11-.13Z"/>
    <path class="cls-2" d="M795.7,513.34c-3.01,27.07,35.8,77.39,29,76.94-6.79-.45-15.22-.86-23.17,1.43-7.95,2.29,5.45,14.98-13.14,84.85-13.95,52.4-24.7,72.83-90.93,135.28-.46,3.07,10.55,12.25,30.54-6.6,84.71-82.55,82.09-185.07,82.09-185.07l.81-18.84,30.34.13c5.32-.15,5.65-2.53,2.43-7.48l-45.25-76.91c-.66-1.15-2.17-3.25-2.71-3.73Z"/>
    <path class="cls-2" d="M499.81,929.13v-37.37c-1.63-40.65-152.3-25.39-259.57-123.41,49.75,67.72,106.28,92.27,137.72,106.98,31.43,14.71,75.49,23.11,94.56,32.45s24.8,22.23,27.29,21.35Z"/>
    <path class="cls-2" d="M189.42,602.4s2.31-11.88-.87-10.48c-4.91,1.78-22.11-.01-30.6.73l-2.71,4.61c-3.11,4.94,2.01,5.41,3.05,5.4,3.54-.1,31.13-.27,31.13-.27Z"/>
    <path class="cls-2" d="M206.55,515.03c-3.01,27.07,36,76.78,29.2,76.32-6.79-.45-15.22-.86-23.17,1.43-7.95,2.29.25,71.99,15.45,98.41s33.76,57.79,95.43,69.82c-90.28-39.88-100.5-142.19-100.5-142.19l-1.02-16.43,30.34.13c6.65.57,5.65-2.53,2.43-7.48l-46.18-77.08c-.66-1.15-1.44-2.46-1.98-2.94Z"/>
    <polygon class="cls-2" points="468.14 304.71 530.87 304.71 531.35 295.49 468.05 295.49 468.14 304.71"/>
    <polygon class="cls-2" points="468.44 364.65 531.1 364.65 531.35 374.45 468.44 374.45 468.44 364.65"/>
    <path class="cls-2" d="M672,338.02s-12.62,4.9-21.74,4.77c-27.05-.4-86.97-3.43-103.43,13.36,21.85-3.71,46.38-3.87,68.55-4.02,16.9-.11,35.02-.7,52,1.36,5.11.63,9.66,6.79,15.4,9,15.7,6.05,29.97-.99,37.04-12.45-6.51,4.12-35.42,11.23-47.82-12.03Z"/>
    <path class="cls-2" d="M278.55,350.06c7.06,11.46,21.34,18.5,37.04,12.45,5.75-2.22,10.3-8.38,15.4-9,16.98-2.06,35.11-1.47,52-1.36,22.17.14,46.7.31,68.55,4.02-16.46-16.79-76.38-13.76-103.43-13.36-9.12.13-21.74-4.77-21.74-4.77-12.4,23.27-41.31,16.15-47.82,12.03Z"/>
    <polygon class="cls-2" points="551.01 211.91 448.53 211.91 451.88 205.01 526.87 205.63 547.47 205.81 547.81 205.81 551.01 211.91"/>
    <path class="cls-2" d="M575.59,146.79c0,23.83-10.97,45.09-28.12,59.02l-20.6-.18c22.81-13.51,38.11-38.37,38.11-66.82,0-21.49-8.74-40.94-22.86-55,20.19,13.65,33.47,36.77,33.47,62.97Z"/>
    <path class="cls-2" d="M546.83,141.9c0-28.04-22.74-50.77-50.78-50.77s-50.78,22.73-50.78,50.77,22.73,50.78,50.78,50.78c9.03,0,17.51-2.36,24.85-6.5-6.3,3.36-13.5,5.27-21.14,5.27-24.84,0-44.97-20.13-44.97-44.97s20.13-44.96,44.97-44.96,44.98,20.13,44.98,44.96c0,10.87-3.85,20.83-10.27,28.61,7.71-8.9,12.36-20.5,12.36-33.2Z"/>
  </g>
</svg>
  <path d="M770.99 268.05Q791.15 268.05 791.15 251.92Q791.15 243.52 782.25 239.49Q777.55 237.14 770.07 235.12Q762.59 233.11 757.64 231.01Q752.68 228.91 747.64 225.21Q737.73 217.82 737.73 202.45Q737.73 187.07 748.40 178.25Q759.07 169.43 776.29 169.43Q793.51 169.43 808.29 176.32L808.29 201.52L791.15 202.70L791.15 192.95Q791.15 190.43 790.48 189.26Q788.63 186.07 778.64 186.07Q768.64 186.07 763.85 189.59Q759.07 193.12 759.07 200.51Q759.07 205.89 763.10 209.92Q765.79 212.61 771.08 214.37Q776.37 216.14 782.33 217.99Q788.30 219.83 792.92 222.02Q797.54 224.20 802.58 228.07Q812.83 235.63 812.83 251.42Q812.83 267.21 801.49 276.28Q790.15 285.35 771.58 285.35Q753.02 285.35 738.23 278.47L738.23 251.92L755.37 250.75L755.37 260.99Q755.37 263.51 756.04 264.69Q756.71 265.87 760.16 266.96Q763.60 268.05 770.99 268.05M833.99 264.35L833.99 182.54Q833.99 179.85 833.07 178.84Q832.15 177.83 829.79 177.67L823.91 177.33L823.91 163.39L853.82 163.39L853.82 208.58Q862.55 196.15 878.35 196.15Q891.11 196.15 898.09 203.45Q905.06 210.76 905.06 225.38L905.06 269.23L914.63 269.73L914.63 283.17L874.65 283.17L874.65 270.40L880.19 269.90Q882.71 269.56 883.89 268.47Q885.07 267.38 885.07 264.35L885.07 229.75Q885.07 221.01 882.29 216.31Q879.52 211.60 871.54 211.60Q863.56 211.60 858.77 216.56Q853.99 221.51 853.99 228.57L853.99 269.23L863.56 269.73L863.56 283.17L823.58 283.17L823.58 270.40L829.12 269.90Q831.64 269.56 832.82 268.47Q833.99 267.38 833.99 264.35M924.88 198.67L954.95 198.67L954.95 269.23L964.53 269.73L964.53 283.17L924.55 283.17L924.55 270.40L930.09 269.90Q934.96 269.39 934.96 264.52L934.96 217.82Q934.96 214.96 934.04 213.95Q933.11 212.95 930.76 212.95L924.88 212.61L924.88 198.67M933.79 184.13Q930.26 180.69 930.26 175.31Q930.26 169.94 933.79 166.33Q937.31 162.71 943.03 162.71Q948.74 162.71 952.35 166.33Q955.96 169.94 955.96 175.31Q955.96 180.69 952.35 184.13Q948.74 187.58 943.03 187.58Q937.31 187.58 933.79 184.13M983.68 299.13L983.68 217.82Q983.68 214.96 982.76 213.87Q981.83 212.78 979.48 212.78L972.43 212.27L972.43 198.67L1000.82 198.67L1000.82 209.59Q1003.51 204.55 1010.56 200.35Q1017.62 196.15 1027.36 196.15Q1057.77 196.15 1057.77 238.82Q1057.77 261.50 1047.86 273.59Q1037.95 285.69 1020.98 285.69Q1010.90 285.69 1003 280.82L1003 304L1016.61 304.67L1016.61 317.95L973.27 317.95L973.27 305.18L978.81 304.67Q981.33 304.34 982.51 303.25Q983.68 302.15 983.68 299.13M1036.94 240.50Q1036.94 212.44 1019.97 212.44Q1012.91 212.44 1007.96 216.73Q1003 221.01 1003 226.89L1003 265.53Q1009.39 269.73 1018.54 269.73Q1027.70 269.73 1032.32 261.33Q1036.94 252.93 1036.94 240.50M1149.33 249.91L1149.33 283.17L1069.53 283.17L1069.53 269.56L1075.07 269.06Q1079.95 268.55 1079.95 264.35L1079.95 186.23L1070.37 185.73L1070.37 171.45L1110.86 171.45L1110.86 185.06L1105.31 185.56Q1100.44 186.07 1100.44 190.94L1100.44 265.87L1128.33 265.87Q1130.68 265.87 1131.44 264.61Q1132.19 263.35 1132.19 260.49L1132.19 248.73L1149.33 249.91M1198.55 270.91Q1216.87 270.91 1216.87 241.34Q1216.87 226.39 1212.75 218.66Q1208.63 210.93 1198.97 210.93Q1189.31 210.93 1184.78 218.32Q1180.24 225.71 1180.24 238.48Q1180.24 262.17 1188.98 268.22Q1192.84 270.91 1198.55 270.91M1159.91 240.83Q1159.91 228.40 1163.61 219.25Q1167.31 210.09 1173.52 205.22Q1185.45 196.15 1199.90 196.15Q1209.98 196.15 1216.95 199.42Q1223.92 202.70 1227.87 206.98Q1231.82 211.27 1234.59 219.41Q1237.36 227.56 1237.36 238.65Q1237.36 261.83 1226.11 273.76Q1214.85 285.69 1197.29 285.69Q1179.74 285.69 1169.83 274.35Q1159.91 263.01 1159.91 240.83M1323.38 283Q1321.87 301.65 1312.63 310.39Q1303.39 319.12 1283.73 319.12Q1264.07 319.12 1252.99 313.58L1252.99 290.23L1268.95 288.88L1268.95 296.95Q1268.95 301.48 1273.15 303.08Q1277.35 304.67 1284.74 304.67Q1295.49 304.67 1299.86 298.21Q1304.23 291.74 1304.23 279.98L1304.23 270.74Q1296.16 280.15 1281.88 280.15Q1273.15 280.15 1266.51 276.79Q1259.87 273.43 1256.18 267.71Q1248.95 256.29 1248.95 240.83Q1248.95 218.83 1260.88 207.49Q1272.81 196.15 1292.63 196.15Q1309.10 196.15 1323.71 202.36L1323.71 264.69Q1323.71 278.97 1323.38 283M1304.23 248.90L1304.23 212.78Q1298.35 210.76 1290.79 210.76Q1280.54 210.76 1275.08 218.32Q1269.62 225.88 1269.62 238.82Q1269.62 265.36 1287.09 265.36Q1294.31 265.36 1299.27 260.91Q1304.23 256.46 1304.23 248.90" fill="#e6edf3"/>
  <path d="M742.87 397.77L731.91 397.77L731.91 394.20L733.37 394.07Q734.64 393.94 734.64 392.84L734.64 372.38L732.13 372.25L732.13 368.51L744.15 368.51Q749.25 368.51 751.98 370.40Q754.71 372.29 754.71 376.60Q754.71 379.59 753.14 381.53Q751.58 383.47 749.43 384.35Q751.01 384.92 751.93 387.03L755.10 393.94L757.61 394.03L757.61 397.77L746.74 397.77L746.74 394.20L748.02 394.07Q749.03 393.94 749.03 393.28Q749.03 393.01 748.85 392.66L746.79 388.26Q746.30 387.16 745.71 386.70Q745.11 386.24 744.01 386.24L740.01 386.24L740.01 393.89L742.87 394.03L742.87 397.77M740.01 372.77L740.01 382.06L743.84 382.06Q749.25 382.06 749.25 377.22Q749.25 374.45 747.82 373.61Q746.39 372.77 743.22 372.77L740.01 372.77M770.55 374.97Q773.85 374.97 775.78 376.58Q777.72 378.19 777.72 381.09Q777.72 383.03 776.88 384.50Q776.05 385.97 774.81 386.81Q773.58 387.65 771.82 388.17Q768.87 389.05 765.18 389.05Q765.31 391.39 766.63 392.82Q767.95 394.25 770.68 394.25Q773.41 394.25 776.13 392.31L777.81 395.87Q776.93 396.67 774.84 397.50Q772.75 398.34 770.06 398.34Q764.69 398.34 762.19 395.37Q759.68 392.40 759.68 387.21Q759.68 382.01 762.54 378.49Q765.40 374.97 770.55 374.97M768.54 385.03Q770.15 384.74 771.51 383.75Q772.88 382.76 772.88 381.40Q772.88 378.71 770.24 378.71Q767.77 378.71 766.45 380.67Q765.13 382.63 765 385.36Q766.94 385.31 768.54 385.03M800.55 376.51L800.55 392.88Q800.55 393.59 800.80 393.85Q801.04 394.11 801.65 394.16L803.06 394.25L803.06 397.77L796.07 397.77L796.07 395.21L795.93 395.17Q793.73 398.34 789.91 398.34Q785.42 398.34 783.26 395.48Q781.11 392.62 781.11 387.65Q781.11 381.66 784.01 378.32Q786.91 374.97 792.72 374.97Q796.46 374.97 800.55 376.51M795.45 390.77L795.45 379.37Q794.22 378.80 792.06 378.80Q789.11 378.80 787.79 381.18Q786.47 383.55 786.47 387.47Q786.47 394.60 791.05 394.60Q792.99 394.60 794.22 393.43Q795.45 392.27 795.45 390.77M816.79 374.97Q818.68 374.97 820.40 375.50L820.40 371.06Q820.40 370.09 819.25 370L817.36 369.87L817.36 366.39L825.55 366.39L825.55 393.15Q825.59 394.16 826.65 394.16L828.19 394.25L828.19 397.77L821.06 397.77L821.06 395.17L820.93 395.13Q818.95 398.34 814.94 398.34Q809.93 398.34 807.90 394.99Q806.05 391.96 806.05 387.56Q806.05 381.84 808.89 378.41Q811.73 374.97 816.79 374.97M820.40 390.90L820.40 379.51Q818.81 378.80 817.05 378.80Q814.15 378.80 812.81 381.13Q811.47 383.47 811.47 387.07Q811.47 394.47 816.22 394.47Q818.02 394.47 819.21 393.43Q820.40 392.40 820.40 390.90M844.42 370.97L847.28 370.97L847.28 375.63L853.13 375.63L852.69 379.33L847.28 379.33L847.28 390.90Q847.28 392.84 847.99 393.61Q848.69 394.38 850.16 394.38Q851.64 394.38 853.13 393.45L854.45 396.84Q852.25 398.38 848.87 398.38Q846.89 398.38 845.52 397.88Q844.16 397.37 843.50 396.75Q842.84 396.14 842.49 394.95Q842.13 393.76 842.09 393.08Q842.05 392.40 842.05 391.08L842.05 379.33L838.92 379.33L839.36 376.12Q841.43 375.94 842.49 374.64Q843.54 373.35 844.42 370.97M858.81 392.84L858.81 371.41Q858.81 370.71 858.57 370.44Q858.33 370.18 857.71 370.13L856.17 370.05L856.17 366.39L864 366.39L864 378.23Q866.29 374.97 870.43 374.97Q873.77 374.97 875.60 376.89Q877.42 378.80 877.42 382.63L877.42 394.11L879.93 394.25L879.93 397.77L869.46 397.77L869.46 394.42L870.91 394.29Q871.57 394.20 871.88 393.92Q872.19 393.63 872.19 392.84L872.19 383.77Q872.19 381.49 871.46 380.25Q870.73 379.02 868.64 379.02Q866.55 379.02 865.30 380.32Q864.05 381.62 864.05 383.47L864.05 394.11L866.55 394.25L866.55 397.77L856.08 397.77L856.08 394.42L857.53 394.29Q858.19 394.20 858.50 393.92Q858.81 393.63 858.81 392.84M893.57 374.97Q896.87 374.97 898.81 376.58Q900.74 378.19 900.74 381.09Q900.74 383.03 899.91 384.50Q899.07 385.97 897.84 386.81Q896.61 387.65 894.85 388.17Q891.90 389.05 888.20 389.05Q888.33 391.39 889.65 392.82Q890.97 394.25 893.70 394.25Q896.43 394.25 899.16 392.31L900.83 395.87Q899.95 396.67 897.86 397.50Q895.77 398.34 893.09 398.34Q887.72 398.34 885.21 395.37Q882.70 392.40 882.70 387.21Q882.70 382.01 885.56 378.49Q888.42 374.97 893.57 374.97M891.57 385.03Q893.17 384.74 894.54 383.75Q895.90 382.76 895.90 381.40Q895.90 378.71 893.26 378.71Q890.80 378.71 889.48 380.67Q888.16 382.63 888.03 385.36Q889.96 385.31 891.57 385.03M912.62 366.39L920.50 366.39L920.50 394.11L923.01 394.25L923.01 397.77L912.53 397.77L912.53 394.42L913.99 394.29Q915.26 394.16 915.26 392.88L915.26 371.19Q915.26 370.22 914.16 370.13L912.62 370.05L912.62 366.39M935.85 394.55Q940.65 394.55 940.65 386.81Q940.65 382.89 939.57 380.87Q938.49 378.85 935.96 378.85Q933.43 378.85 932.25 380.78Q931.06 382.72 931.06 386.06Q931.06 392.27 933.35 393.85Q934.36 394.55 935.85 394.55M925.73 386.68Q925.73 383.42 926.70 381.02Q927.67 378.63 929.30 377.35Q932.42 374.97 936.21 374.97Q938.85 374.97 940.67 375.83Q942.50 376.69 943.53 377.81Q944.57 378.93 945.29 381.07Q946.02 383.20 946.02 386.11Q946.02 392.18 943.07 395.30Q940.12 398.43 935.52 398.43Q930.93 398.43 928.33 395.46Q925.73 392.49 925.73 386.68M968.55 397.72Q968.15 402.61 965.73 404.89Q963.31 407.18 958.16 407.18Q953.01 407.18 950.11 405.73L950.11 399.61L954.29 399.26L954.29 401.37Q954.29 402.56 955.39 402.98Q956.49 403.40 958.43 403.40Q961.24 403.40 962.39 401.70Q963.53 400.01 963.53 396.93L963.53 394.51Q961.42 396.97 957.68 396.97Q955.39 396.97 953.65 396.09Q951.91 395.21 950.95 393.72Q949.05 390.73 949.05 386.68Q949.05 380.91 952.18 377.94Q955.30 374.97 960.49 374.97Q964.81 374.97 968.63 376.60L968.63 392.93Q968.63 396.67 968.55 397.72M963.53 388.79L963.53 379.33Q961.99 378.80 960.01 378.80Q957.33 378.80 955.90 380.78Q954.47 382.76 954.47 386.15Q954.47 393.10 959.04 393.10Q960.93 393.10 962.23 391.94Q963.53 390.77 963.53 388.79M983.64 396.45L983.64 371.19Q983.64 370.18 982.54 370.13L981 370.05L981 366.39L988.74 366.39L988.74 376.82Q990.72 374.97 994.07 374.97Q998.20 374.97 1000.62 377.77Q1003.04 380.56 1003.04 385.62Q1003.04 398.34 992.39 398.34Q990.11 398.34 987.58 397.79Q985.05 397.24 983.64 396.45M988.74 382.19L988.74 393.59Q990.41 394.47 992.61 394.47Q997.63 394.47 997.63 386.33Q997.63 378.89 992.70 378.89Q991.12 378.89 989.93 379.81Q988.74 380.74 988.74 382.19M1017.21 374.97Q1020.51 374.97 1022.45 376.58Q1024.38 378.19 1024.38 381.09Q1024.38 383.03 1023.55 384.50Q1022.71 385.97 1021.48 386.81Q1020.25 387.65 1018.49 388.17Q1015.54 389.05 1011.84 389.05Q1011.97 391.39 1013.29 392.82Q1014.61 394.25 1017.34 394.25Q1020.07 394.25 1022.80 392.31L1024.47 395.87Q1023.59 396.67 1021.50 397.50Q1019.41 398.34 1016.73 398.34Q1011.36 398.34 1008.85 395.37Q1006.34 392.40 1006.34 387.21Q1006.34 382.01 1009.20 378.49Q1012.06 374.97 1017.21 374.97M1015.21 385.03Q1016.81 384.74 1018.18 383.75Q1019.54 382.76 1019.54 381.40Q1019.54 378.71 1016.90 378.71Q1014.44 378.71 1013.12 380.67Q1011.80 382.63 1011.67 385.36Q1013.60 385.31 1015.21 385.03M1030.23 392.84L1030.23 379.33L1026.45 379.33L1026.45 375.63L1030.23 375.63L1030.23 373.96Q1030.23 369.65 1032.21 367.76Q1034.06 365.95 1037.63 365.95Q1041.19 365.95 1043.96 367.49L1042.69 371.01Q1040.57 369.91 1038.73 369.91Q1036.88 369.91 1036.17 370.82Q1035.47 371.72 1035.47 373.57L1035.47 375.63L1041.98 375.63L1041.98 379.33L1035.47 379.33L1035.47 394.07L1039.17 394.25L1039.17 397.77L1027.51 397.77L1027.51 394.42L1028.96 394.29Q1029.62 394.20 1029.93 393.92Q1030.23 393.63 1030.23 392.84M1053.42 394.55Q1058.22 394.55 1058.22 386.81Q1058.22 382.89 1057.14 380.87Q1056.06 378.85 1053.53 378.85Q1051 378.85 1049.81 380.78Q1048.63 382.72 1048.63 386.06Q1048.63 392.27 1050.91 393.85Q1051.93 394.55 1053.42 394.55M1043.30 386.68Q1043.30 383.42 1044.27 381.02Q1045.24 378.63 1046.87 377.35Q1049.99 374.97 1053.77 374.97Q1056.41 374.97 1058.24 375.83Q1060.07 376.69 1061.10 377.81Q1062.13 378.93 1062.86 381.07Q1063.59 383.20 1063.59 386.11Q1063.59 392.18 1060.64 395.30Q1057.69 398.43 1053.09 398.43Q1048.49 398.43 1045.90 395.46Q1043.30 392.49 1043.30 386.68M1069.26 392.84L1069.26 380.65Q1069.26 379.95 1069.02 379.66Q1068.78 379.37 1068.16 379.33L1066.31 379.20L1066.31 375.63L1073.75 375.63L1073.75 378.93Q1074.54 377.22 1076.21 376.10Q1077.89 374.97 1080.06 374.97Q1082.24 374.97 1084.22 375.94L1084.22 382.50L1080.13 382.81L1080.13 380.78Q1080.13 379.90 1079.69 379.68Q1079.21 379.46 1078.50 379.46Q1076.74 379.46 1075.62 380.72Q1074.50 381.97 1074.50 383.91L1074.50 394.11L1078.33 394.29L1078.33 397.77L1066.53 397.77L1066.53 394.42L1067.99 394.29Q1068.65 394.20 1068.95 393.92Q1069.26 393.63 1069.26 392.84M1097.91 374.97Q1101.21 374.97 1103.14 376.58Q1105.08 378.19 1105.08 381.09Q1105.08 383.03 1104.24 384.50Q1103.41 385.97 1102.17 386.81Q1100.94 387.65 1099.18 388.17Q1096.23 389.05 1092.54 389.05Q1092.67 391.39 1093.99 392.82Q1095.31 394.25 1098.04 394.25Q1100.77 394.25 1103.49 392.31L1105.17 395.87Q1104.29 396.67 1102.20 397.50Q1100.11 398.34 1097.42 398.34Q1092.05 398.34 1089.55 395.37Q1087.04 392.40 1087.04 387.21Q1087.04 382.01 1089.90 378.49Q1092.76 374.97 1097.91 374.97M1095.90 385.03Q1097.51 384.74 1098.87 383.75Q1100.24 382.76 1100.24 381.40Q1100.24 378.71 1097.60 378.71Q1095.13 378.71 1093.81 380.67Q1092.49 382.63 1092.36 385.36Q1094.30 385.31 1095.90 385.03M1133.15 396.93L1133.15 393.59Q1130.73 397.02 1126.02 397.02Q1119.20 397.02 1119.20 389.41L1119.20 380.56Q1119.20 379.37 1118.10 379.33L1116.69 379.24L1116.69 375.63L1124.44 375.63L1124.44 388.26Q1124.44 390.59 1125.10 391.78Q1125.76 392.97 1127.83 392.97Q1129.89 392.97 1131.15 391.69Q1132.40 390.42 1132.40 388.61L1132.40 380.65Q1132.40 379.90 1132.16 379.62Q1131.92 379.33 1131.30 379.33L1129.89 379.24L1129.89 375.63L1137.64 375.63L1137.64 396.93Q1137.64 402.25 1135.06 404.72Q1132.49 407.18 1127.28 407.18Q1122.06 407.18 1119.16 405.73L1119.16 399.61L1123.34 399.26L1123.34 401.37Q1123.34 402.56 1124.44 402.98Q1125.54 403.40 1127.47 403.40Q1133.15 403.40 1133.15 396.93M1152.29 394.55Q1157.09 394.55 1157.09 386.81Q1157.09 382.89 1156.01 380.87Q1154.93 378.85 1152.40 378.85Q1149.87 378.85 1148.68 380.78Q1147.49 382.72 1147.49 386.06Q1147.49 392.27 1149.78 393.85Q1150.79 394.55 1152.29 394.55M1142.17 386.68Q1142.17 383.42 1143.14 381.02Q1144.11 378.63 1145.73 377.35Q1148.86 374.97 1152.64 374.97Q1155.28 374.97 1157.11 375.83Q1158.93 376.69 1159.97 377.81Q1161 378.93 1161.73 381.07Q1162.45 383.20 1162.45 386.11Q1162.45 392.18 1159.51 395.30Q1156.56 398.43 1151.96 398.43Q1147.36 398.43 1144.77 395.46Q1142.17 392.49 1142.17 386.68M1186.52 394.16L1188.06 394.29L1188.06 397.77L1180.93 397.77L1180.93 394.91Q1178.51 398.34 1173.81 398.34Q1166.99 398.34 1166.99 390.73L1166.99 380.56Q1166.99 379.37 1165.89 379.33L1164.48 379.24L1164.48 375.63L1172.22 375.63L1172.22 389.58Q1172.22 391.91 1172.88 393.10Q1173.54 394.29 1175.61 394.29Q1177.68 394.29 1178.93 393.01Q1180.19 391.74 1180.19 389.93L1180.19 380.65Q1180.19 379.95 1179.94 379.66Q1179.70 379.37 1179.09 379.33L1177.68 379.24L1177.68 375.63L1185.42 375.63L1185.42 392.88Q1185.42 393.59 1185.64 393.83Q1185.86 394.07 1186.52 394.16M1211.07 378.98Q1210.02 378.58 1208.52 378.58Q1207.03 378.58 1206.12 379.26Q1205.22 379.95 1205.22 380.94Q1205.22 381.93 1205.55 382.48Q1205.88 383.03 1206.59 383.42Q1207.69 383.99 1209.23 384.41Q1210.77 384.83 1211.51 385.07Q1212.26 385.31 1213.38 385.89Q1214.51 386.46 1215.08 387.12Q1216.62 388.75 1216.62 391.30Q1216.62 394.60 1214.22 396.47Q1211.82 398.34 1208.13 398.34Q1202.76 398.34 1200.03 396.97L1200.03 390.86L1203.99 390.55L1203.99 392.66Q1203.99 394.60 1207.69 394.60Q1211.38 394.60 1211.38 391.91Q1211.38 390.95 1210.74 390.33Q1210.11 389.71 1209.49 389.49Q1208.87 389.27 1208.02 389.05Q1207.16 388.83 1206.34 388.61Q1205.53 388.39 1204.58 388.02Q1203.64 387.65 1202.49 386.94Q1200.25 385.49 1200.25 382.08Q1200.25 378.67 1202.67 376.82Q1205.09 374.97 1208.76 374.97Q1212.44 374.97 1216.05 376.73L1216.05 382.01L1212.09 382.32L1212.09 380.47Q1212.09 379.37 1211.07 378.98M1230.43 374.97Q1233.73 374.97 1235.67 376.58Q1237.61 378.19 1237.61 381.09Q1237.61 383.03 1236.77 384.50Q1235.93 385.97 1234.70 386.81Q1233.47 387.65 1231.71 388.17Q1228.76 389.05 1225.07 389.05Q1225.20 391.39 1226.52 392.82Q1227.84 394.25 1230.57 394.25Q1233.29 394.25 1236.02 392.31L1237.69 395.87Q1236.81 396.67 1234.72 397.50Q1232.63 398.34 1229.95 398.34Q1224.58 398.34 1222.07 395.37Q1219.57 392.40 1219.57 387.21Q1219.57 382.01 1222.43 378.49Q1225.29 374.97 1230.43 374.97M1228.43 385.03Q1230.04 384.74 1231.40 383.75Q1232.77 382.76 1232.77 381.40Q1232.77 378.71 1230.13 378.71Q1227.66 378.71 1226.34 380.67Q1225.02 382.63 1224.89 385.36Q1226.83 385.31 1228.43 385.03M1245.57 370.97L1248.43 370.97L1248.43 375.63L1254.28 375.63L1253.84 379.33L1248.43 379.33L1248.43 390.90Q1248.43 392.84 1249.13 393.61Q1249.84 394.38 1251.31 394.38Q1252.79 394.38 1254.28 393.45L1255.60 396.84Q1253.40 398.38 1250.01 398.38Q1248.03 398.38 1246.67 397.88Q1245.31 397.37 1244.65 396.75Q1243.99 396.14 1243.63 394.95Q1243.28 393.76 1243.24 393.08Q1243.19 392.40 1243.19 391.08L1243.19 379.33L1240.07 379.33L1240.51 376.12Q1242.58 375.94 1243.63 374.64Q1244.69 373.35 1245.57 370.97M1277.60 378.98Q1276.55 378.58 1275.05 378.58Q1273.55 378.58 1272.65 379.26Q1271.75 379.95 1271.75 380.94Q1271.75 381.93 1272.08 382.48Q1272.41 383.03 1273.11 383.42Q1274.21 383.99 1275.75 384.41Q1277.29 384.83 1278.04 385.07Q1278.79 385.31 1279.91 385.89Q1281.03 386.46 1281.61 387.12Q1283.15 388.75 1283.15 391.30Q1283.15 394.60 1280.75 396.47Q1278.35 398.34 1274.65 398.34Q1269.29 398.34 1266.56 396.97L1266.56 390.86L1270.52 390.55L1270.52 392.66Q1270.52 394.60 1274.21 394.60Q1277.91 394.60 1277.91 391.91Q1277.91 390.95 1277.27 390.33Q1276.63 389.71 1276.02 389.49Q1275.40 389.27 1274.54 389.05Q1273.69 388.83 1272.87 388.61Q1272.06 388.39 1271.11 388.02Q1270.17 387.65 1269.02 386.94Q1266.78 385.49 1266.78 382.08Q1266.78 378.67 1269.20 376.82Q1271.62 374.97 1275.29 374.97Q1278.97 374.97 1282.57 376.73L1282.57 382.01L1278.61 382.32L1278.61 380.47Q1278.61 379.37 1277.60 378.98M1305.67 376.51L1305.67 392.88Q1305.67 393.59 1305.92 393.85Q1306.16 394.11 1306.77 394.16L1308.18 394.25L1308.18 397.77L1301.19 397.77L1301.19 395.21L1301.05 395.17Q1298.85 398.34 1295.03 398.34Q1290.54 398.34 1288.38 395.48Q1286.23 392.62 1286.23 387.65Q1286.23 381.66 1289.13 378.32Q1292.03 374.97 1297.84 374.97Q1301.58 374.97 1305.67 376.51M1300.57 390.77L1300.57 379.37Q1299.34 378.80 1297.18 378.80Q1294.23 378.80 1292.91 381.18Q1291.59 383.55 1291.59 387.47Q1291.59 394.60 1296.17 394.60Q1298.11 394.60 1299.34 393.43Q1300.57 392.27 1300.57 390.77M1310.95 375.63L1318.83 375.63L1318.83 394.11L1321.34 394.25L1321.34 397.77L1310.87 397.77L1310.87 394.42L1312.32 394.29Q1313.59 394.16 1313.59 392.88L1313.59 380.65Q1313.59 379.90 1313.35 379.64Q1313.11 379.37 1312.49 379.37L1310.95 379.29L1310.95 375.63M1313.29 371.83Q1312.36 370.93 1312.36 369.52Q1312.36 368.11 1313.29 367.16Q1314.21 366.22 1315.71 366.22Q1317.20 366.22 1318.15 367.16Q1319.09 368.11 1319.09 369.52Q1319.09 370.93 1318.15 371.83Q1317.20 372.73 1315.71 372.73Q1314.21 372.73 1313.29 371.83M1323.89 366.39L1331.77 366.39L1331.77 394.11L1334.27 394.25L1334.27 397.77L1323.80 397.77L1323.80 394.42L1325.25 394.29Q1326.53 394.16 1326.53 392.88L1326.53 371.19Q1326.53 370.22 1325.43 370.13L1323.89 370.05L1323.89 366.39M1340.52 398.43Q1338.98 398.43 1338.15 397.57Q1337.31 396.71 1337.31 395.32Q1337.31 393.94 1338.17 393.04Q1339.03 392.13 1340.50 392.13Q1341.97 392.13 1342.85 392.99Q1343.73 393.85 1343.73 395.24Q1343.73 396.62 1342.90 397.52Q1342.06 398.43 1340.52 398.43" fill="#9aa4ad"/>
</svg>
